<svg width="1280" height="720" xmlns="http://www.w3.org/2000/svg" xmlns:xlink="http://www.w3.org/1999/xlink" overflow="hidden"><defs><clipPath id="clip0"><rect x="0" y="0" width="1280" height="720"/></clipPath></defs><g clip-path="url(#clip0)"><rect x="0" y="0" width="1280" height="720" fill="#FFFFFF"/><rect x="-72" y="-67" width="92" height="96" stroke="#8FAADC" stroke-width="2" stroke-miterlimit="8" fill="#FAFAFA"/><rect x="20" y="-67" width="92" height="96" stroke="#8FAADC" stroke-width="2" stroke-miterlimit="8" fill="#FAFAFA"/><rect x="112" y="-67" width="92" height="96" stroke="#8FAADC" stroke-width="2" stroke-miterlimit="8" fill="#FAFAFA"/><rect x="203" y="-67" width="92" height="96" stroke="#8FAADC" stroke-width="2" stroke-miterlimit="8" fill="#FAFAFA"/><rect x="295" y="-67" width="92" height="96" stroke="#8FAADC" stroke-width="2" stroke-miterlimit="8" fill="#FAFAFA"/><rect x="386" y="-67" width="92" height="96" stroke="#8FAADC" stroke-width="2" stroke-miterlimit="8" fill="#FAFAFA"/><rect x="478" y="-67" width="91" height="96" stroke="#8FAADC" stroke-width="2" stroke-miterlimit="8" fill="#FAFAFA"/><rect x="569" y="-67" width="92" height="96" stroke="#8FAADC" stroke-width="2" stroke-miterlimit="8" fill="#FAFAFA"/><rect x="-72" y="29" width="92" height="96" stroke="#8FAADC" stroke-width="2" stroke-miterlimit="8" fill="#FAFAFA"/><rect x="20" y="29" width="92" height="96" stroke="#8FAADC" stroke-width="2" stroke-miterlimit="8" fill="#FAFAFA"/><rect x="112" y="29" width="92" height="96" stroke="#8FAADC" stroke-width="2" stroke-miterlimit="8" fill="#FAFAFA"/><rect x="203" y="29" width="92" height="96" stroke="#8FAADC" stroke-width="2" stroke-miterlimit="8" fill="#FAFAFA"/><rect x="295" y="29" width="92" height="96" stroke="#8FAADC" stroke-width="2" stroke-miterlimit="8" fill="#FAFAFA"/><rect x="386" y="29" width="92" height="96" stroke="#8FAADC" stroke-width="2" stroke-miterlimit="8" fill="#FAFAFA"/><rect x="478" y="29" width="91" height="96" stroke="#8FAADC" stroke-width="2" stroke-miterlimit="8" fill="#FAFAFA"/><rect x="569" y="29" width="92" height="96" stroke="#8FAADC" stroke-width="2" stroke-miterlimit="8" fill="#FAFAFA"/><rect x="-72" y="125" width="92" height="96" stroke="#8FAADC" stroke-width="2" stroke-miterlimit="8" fill="#FAFAFA"/><rect x="20" y="125" width="92" height="96" stroke="#8FAADC" stroke-width="2" stroke-miterlimit="8" fill="#FAFAFA"/><rect x="112" y="125" width="92" height="96" stroke="#8FAADC" stroke-width="2" stroke-miterlimit="8" fill="#FAFAFA"/><rect x="203" y="125" width="92" height="96" stroke="#8FAADC" stroke-width="2" stroke-miterlimit="8" fill="#FAFAFA"/><rect x="295" y="125" width="92" height="96" stroke="#8FAADC" stroke-width="2" stroke-miterlimit="8" fill="#FAFAFA"/><rect x="386" y="125" width="92" height="96" stroke="#8FAADC" stroke-width="2" stroke-miterlimit="8" fill="#FAFAFA"/><rect x="478" y="125" width="91" height="96" stroke="#8FAADC" stroke-width="2" stroke-miterlimit="8" fill="#FAFAFA"/><rect x="569" y="125" width="92" height="96" stroke="#8FAADC" stroke-width="2" stroke-miterlimit="8" fill="#FAFAFA"/><rect x="-72" y="221" width="92" height="97" stroke="#8FAADC" stroke-width="2" stroke-miterlimit="8" fill="#FAFAFA"/><rect x="20" y="221" width="92" height="97" stroke="#8FAADC" stroke-width="2" stroke-miterlimit="8" fill="#FAFAFA"/><rect x="112" y="221" width="92" height="97" stroke="#8FAADC" stroke-width="2" stroke-miterlimit="8" fill="#FAFAFA"/><rect x="203" y="221" width="92" height="97" stroke="#8FAADC" stroke-width="2" stroke-miterlimit="8" fill="#FAFAFA"/><rect x="295" y="221" width="92" height="97" stroke="#8FAADC" stroke-width="2" stroke-miterlimit="8" fill="#FAFAFA"/><rect x="386" y="221" width="92" height="97" stroke="#8FAADC" stroke-width="2" stroke-miterlimit="8" fill="#FAFAFA"/><rect x="478" y="221" width="91" height="97" stroke="#8FAADC" stroke-width="2" stroke-miterlimit="8" fill="#FAFAFA"/><rect x="569" y="221" width="92" height="97" stroke="#8FAADC" stroke-width="2" stroke-miterlimit="8" fill="#FAFAFA"/><rect x="-72" y="317" width="92" height="96" stroke="#8FAADC" stroke-width="2" stroke-miterlimit="8" fill="#FAFAFA"/><rect x="20" y="317" width="92" height="96" stroke="#8FAADC" stroke-width="2" stroke-miterlimit="8" fill="#FAFAFA"/><rect x="112" y="317" width="92" height="96" stroke="#8FAADC" stroke-width="2" stroke-miterlimit="8" fill="#FAFAFA"/><rect x="203" y="317" width="92" height="96" stroke="#8FAADC" stroke-width="2" stroke-miterlimit="8" fill="#FAFAFA"/><rect x="295" y="317" width="92" height="96" stroke="#8FAADC" stroke-width="2" stroke-miterlimit="8" fill="#FAFAFA"/><rect x="386" y="317" width="92" height="96" stroke="#8FAADC" stroke-width="2" stroke-miterlimit="8" fill="#FAFAFA"/><rect x="478" y="317" width="91" height="96" stroke="#8FAADC" stroke-width="2" stroke-miterlimit="8" fill="#FAFAFA"/><rect x="569" y="317" width="92" height="96" stroke="#8FAADC" stroke-width="2" stroke-miterlimit="8" fill="#FAFAFA"/><rect x="-72" y="413" width="92" height="97" stroke="#8FAADC" stroke-width="2" stroke-miterlimit="8" fill="#FAFAFA"/><rect x="20" y="413" width="92" height="97" stroke="#8FAADC" stroke-width="2" stroke-miterlimit="8" fill="#FAFAFA"/><rect x="112" y="413" width="92" height="97" stroke="#8FAADC" stroke-width="2" stroke-miterlimit="8" fill="#FAFAFA"/><rect x="203" y="413" width="92" height="97" stroke="#8FAADC" stroke-width="2" stroke-miterlimit="8" fill="#FAFAFA"/><rect x="295" y="413" width="92" height="97" stroke="#8FAADC" stroke-width="2" stroke-miterlimit="8" fill="#FAFAFA"/><rect x="386" y="413" width="92" height="97" stroke="#8FAADC" stroke-width="2" stroke-miterlimit="8" fill="#FAFAFA"/><rect x="478" y="413" width="91" height="97" stroke="#8FAADC" stroke-width="2" stroke-miterlimit="8" fill="#FAFAFA"/><rect x="569" y="413" width="92" height="97" stroke="#8FAADC" stroke-width="2" stroke-miterlimit="8" fill="#FAFAFA"/><rect x="-72" y="510" width="92" height="96" stroke="#8FAADC" stroke-width="2" stroke-miterlimit="8" fill="#FAFAFA"/><rect x="20" y="510" width="92" height="96" stroke="#8FAADC" stroke-width="2" stroke-miterlimit="8" fill="#FAFAFA"/><rect x="112" y="510" width="92" height="96" stroke="#8FAADC" stroke-width="2" stroke-miterlimit="8" fill="#FAFAFA"/><rect x="203" y="510" width="92" height="96" stroke="#8FAADC" stroke-width="2" stroke-miterlimit="8" fill="#FAFAFA"/><rect x="295" y="510" width="92" height="96" stroke="#8FAADC" stroke-width="2" stroke-miterlimit="8" fill="#FAFAFA"/><rect x="386" y="510" width="92" height="96" stroke="#8FAADC" stroke-width="2" stroke-miterlimit="8" fill="#FAFAFA"/><rect x="478" y="510" width="91" height="96" stroke="#8FAADC" stroke-width="2" stroke-miterlimit="8" fill="#FAFAFA"/><rect x="569" y="510" width="92" height="96" stroke="#8FAADC" stroke-width="2" stroke-miterlimit="8" fill="#FAFAFA"/><rect x="-72" y="605" width="92" height="97" stroke="#8FAADC" stroke-width="2" stroke-miterlimit="8" fill="#FAFAFA"/><rect x="20" y="605" width="92" height="97" stroke="#8FAADC" stroke-width="2" stroke-miterlimit="8" fill="#FAFAFA"/><rect x="112" y="605" width="92" height="97" stroke="#8FAADC" stroke-width="2" stroke-miterlimit="8" fill="#FAFAFA"/><rect x="203" y="605" width="92" height="97" stroke="#8FAADC" stroke-width="2" stroke-miterlimit="8" fill="#FAFAFA"/><rect x="295" y="605" width="92" height="97" stroke="#8FAADC" stroke-width="2" stroke-miterlimit="8" fill="#FAFAFA"/><rect x="386" y="605" width="92" height="97" stroke="#8FAADC" stroke-width="2" stroke-miterlimit="8" fill="#FAFAFA"/><rect x="478" y="605" width="91" height="97" stroke="#8FAADC" stroke-width="2" stroke-miterlimit="8" fill="#FAFAFA"/><rect x="569" y="605" width="92" height="97" stroke="#8FAADC" stroke-width="2" stroke-miterlimit="8" fill="#FAFAFA"/><rect x="-72" y="702" width="92" height="96" stroke="#8FAADC" stroke-width="2" stroke-miterlimit="8" fill="#FAFAFA"/><rect x="20" y="702" width="92" height="96" stroke="#8FAADC" stroke-width="2" stroke-miterlimit="8" fill="#FAFAFA"/><rect x="112" y="702" width="92" height="96" stroke="#8FAADC" stroke-width="2" stroke-miterlimit="8" fill="#FAFAFA"/><rect x="203" y="702" width="92" height="96" stroke="#8FAADC" stroke-width="2" stroke-miterlimit="8" fill="#FAFAFA"/><rect x="295" y="702" width="92" height="96" stroke="#8FAADC" stroke-width="2" stroke-miterlimit="8" fill="#FAFAFA"/><rect x="386" y="702" width="92" height="96" stroke="#8FAADC" stroke-width="2" stroke-miterlimit="8" fill="#FAFAFA"/><rect x="478" y="702" width="91" height="96" stroke="#8FAADC" stroke-width="2" stroke-miterlimit="8" fill="#FAFAFA"/><rect x="569" y="702" width="92" height="96" stroke="#8FAADC" stroke-width="2" stroke-miterlimit="8" fill="#FAFAFA"/><rect x="661" y="-68" width="91" height="97" stroke="#8FAADC" stroke-width="2" stroke-miterlimit="8" fill="#FAFAFA"/><rect x="752" y="-68" width="92" height="97" stroke="#8FAADC" stroke-width="2" stroke-miterlimit="8" fill="#FAFAFA"/><rect x="844" y="-68" width="92" height="97" stroke="#8FAADC" stroke-width="2" stroke-miterlimit="8" fill="#FAFAFA"/><rect x="935" y="-68" width="92" height="97" stroke="#8FAADC" stroke-width="2" stroke-miterlimit="8" fill="#FAFAFA"/><rect x="1027" y="-68" width="92" height="97" stroke="#8FAADC" stroke-width="2" stroke-miterlimit="8" fill="#FAFAFA"/><rect x="1118" y="-68" width="92" height="97" stroke="#8FAADC" stroke-width="2" stroke-miterlimit="8" fill="#FAFAFA"/><rect x="1210" y="-68" width="92" height="97" stroke="#8FAADC" stroke-width="2" stroke-miterlimit="8" fill="#FAFAFA"/><rect x="661" y="28" width="91" height="96" stroke="#8FAADC" stroke-width="2" stroke-miterlimit="8" fill="#FAFAFA"/><rect x="752" y="28" width="92" height="96" stroke="#8FAADC" stroke-width="2" stroke-miterlimit="8" fill="#FAFAFA"/><rect x="844" y="28" width="92" height="96" stroke="#8FAADC" stroke-width="2" stroke-miterlimit="8" fill="#FAFAFA"/><rect x="935" y="28" width="92" height="96" stroke="#8FAADC" stroke-width="2" stroke-miterlimit="8" fill="#FAFAFA"/><rect x="1027" y="28" width="92" height="96" stroke="#8FAADC" stroke-width="2" stroke-miterlimit="8" fill="#FAFAFA"/><rect x="1118" y="28" width="92" height="96" stroke="#8FAADC" stroke-width="2" stroke-miterlimit="8" fill="#FAFAFA"/><rect x="1210" y="28" width="92" height="96" stroke="#8FAADC" stroke-width="2" stroke-miterlimit="8" fill="#FAFAFA"/><rect x="661" y="124" width="91" height="97" stroke="#8FAADC" stroke-width="2" stroke-miterlimit="8" fill="#FAFAFA"/><rect x="752" y="124" width="92" height="97" stroke="#8FAADC" stroke-width="2" stroke-miterlimit="8" fill="#FAFAFA"/><rect x="844" y="124" width="92" height="97" stroke="#8FAADC" stroke-width="2" stroke-miterlimit="8" fill="#FAFAFA"/><rect x="935" y="124" width="92" height="97" stroke="#8FAADC" stroke-width="2" stroke-miterlimit="8" fill="#FAFAFA"/><rect x="1027" y="124" width="92" height="97" stroke="#8FAADC" stroke-width="2" stroke-miterlimit="8" fill="#FAFAFA"/><rect x="1118" y="124" width="92" height="97" stroke="#8FAADC" stroke-width="2" stroke-miterlimit="8" fill="#FAFAFA"/><rect x="1210" y="124" width="92" height="97" stroke="#8FAADC" stroke-width="2" stroke-miterlimit="8" fill="#FAFAFA"/><rect x="661" y="221" width="91" height="96" stroke="#8FAADC" stroke-width="2" stroke-miterlimit="8" fill="#FAFAFA"/><rect x="752" y="221" width="92" height="96" stroke="#8FAADC" stroke-width="2" stroke-miterlimit="8" fill="#FAFAFA"/><rect x="844" y="221" width="92" height="96" stroke="#8FAADC" stroke-width="2" stroke-miterlimit="8" fill="#FAFAFA"/><rect x="935" y="221" width="92" height="96" stroke="#8FAADC" stroke-width="2" stroke-miterlimit="8" fill="#FAFAFA"/><rect x="1027" y="221" width="92" height="96" stroke="#8FAADC" stroke-width="2" stroke-miterlimit="8" fill="#FAFAFA"/><rect x="1118" y="221" width="92" height="96" stroke="#8FAADC" stroke-width="2" stroke-miterlimit="8" fill="#FAFAFA"/><rect x="1210" y="221" width="92" height="96" stroke="#8FAADC" stroke-width="2" stroke-miterlimit="8" fill="#FAFAFA"/><rect x="661" y="317" width="91" height="96" stroke="#8FAADC" stroke-width="2" stroke-miterlimit="8" fill="#FAFAFA"/><rect x="752" y="317" width="92" height="96" stroke="#8FAADC" stroke-width="2" stroke-miterlimit="8" fill="#FAFAFA"/><rect x="844" y="317" width="92" height="96" stroke="#8FAADC" stroke-width="2" stroke-miterlimit="8" fill="#FAFAFA"/><rect x="935" y="317" width="92" height="96" stroke="#8FAADC" stroke-width="2" stroke-miterlimit="8" fill="#FAFAFA"/><rect x="1027" y="317" width="92" height="96" stroke="#8FAADC" stroke-width="2" stroke-miterlimit="8" fill="#FAFAFA"/><rect x="1118" y="317" width="92" height="96" stroke="#8FAADC" stroke-width="2" stroke-miterlimit="8" fill="#FAFAFA"/><rect x="1210" y="317" width="92" height="96" stroke="#8FAADC" stroke-width="2" stroke-miterlimit="8" fill="#FAFAFA"/><rect x="661" y="413" width="91" height="96" stroke="#8FAADC" stroke-width="2" stroke-miterlimit="8" fill="#FAFAFA"/><rect x="752" y="413" width="92" height="96" stroke="#8FAADC" stroke-width="2" stroke-miterlimit="8" fill="#FAFAFA"/><rect x="844" y="413" width="92" height="96" stroke="#8FAADC" stroke-width="2" stroke-miterlimit="8" fill="#FAFAFA"/><rect x="935" y="413" width="92" height="96" stroke="#8FAADC" stroke-width="2" stroke-miterlimit="8" fill="#FAFAFA"/><rect x="1027" y="413" width="92" height="96" stroke="#8FAADC" stroke-width="2" stroke-miterlimit="8" fill="#FAFAFA"/><rect x="1118" y="413" width="92" height="96" stroke="#8FAADC" stroke-width="2" stroke-miterlimit="8" fill="#FAFAFA"/><rect x="1210" y="413" width="92" height="96" stroke="#8FAADC" stroke-width="2" stroke-miterlimit="8" fill="#FAFAFA"/><rect x="661" y="509" width="91" height="96" stroke="#8FAADC" stroke-width="2" stroke-miterlimit="8" fill="#FAFAFA"/><rect x="752" y="509" width="92" height="96" stroke="#8FAADC" stroke-width="2" stroke-miterlimit="8" fill="#FAFAFA"/><rect x="844" y="509" width="92" height="96" stroke="#8FAADC" stroke-width="2" stroke-miterlimit="8" fill="#FAFAFA"/><rect x="935" y="509" width="92" height="96" stroke="#8FAADC" stroke-width="2" stroke-miterlimit="8" fill="#FAFAFA"/><rect x="1027" y="509" width="92" height="96" stroke="#8FAADC" stroke-width="2" stroke-miterlimit="8" fill="#FAFAFA"/><rect x="1118" y="509" width="92" height="96" stroke="#8FAADC" stroke-width="2" stroke-miterlimit="8" fill="#FAFAFA"/><rect x="1210" y="509" width="92" height="96" stroke="#8FAADC" stroke-width="2" stroke-miterlimit="8" fill="#FAFAFA"/><rect x="661" y="604" width="91" height="97" stroke="#8FAADC" stroke-width="2" stroke-miterlimit="8" fill="#FAFAFA"/><rect x="752" y="604" width="92" height="97" stroke="#8FAADC" stroke-width="2" stroke-miterlimit="8" fill="#FAFAFA"/><rect x="844" y="604" width="92" height="97" stroke="#8FAADC" stroke-width="2" stroke-miterlimit="8" fill="#FAFAFA"/><rect x="935" y="604" width="92" height="97" stroke="#8FAADC" stroke-width="2" stroke-miterlimit="8" fill="#FAFAFA"/><rect x="1027" y="604" width="92" height="97" stroke="#8FAADC" stroke-width="2" stroke-miterlimit="8" fill="#FAFAFA"/><rect x="1118" y="604" width="92" height="97" stroke="#8FAADC" stroke-width="2" stroke-miterlimit="8" fill="#FAFAFA"/><rect x="1210" y="604" width="92" height="97" stroke="#8FAADC" stroke-width="2" stroke-miterlimit="8" fill="#FAFAFA"/><rect x="661" y="701" width="91" height="96" stroke="#8FAADC" stroke-width="2" stroke-miterlimit="8" fill="#FAFAFA"/><rect x="752" y="701" width="92" height="96" stroke="#8FAADC" stroke-width="2" stroke-miterlimit="8" fill="#FAFAFA"/><rect x="844" y="701" width="92" height="96" stroke="#8FAADC" stroke-width="2" stroke-miterlimit="8" fill="#FAFAFA"/><rect x="935" y="701" width="92" height="96" stroke="#8FAADC" stroke-width="2" stroke-miterlimit="8" fill="#FAFAFA"/><rect x="1027" y="701" width="92" height="96" stroke="#8FAADC" stroke-width="2" stroke-miterlimit="8" fill="#FAFAFA"/><rect x="1118" y="701" width="92" height="96" stroke="#8FAADC" stroke-width="2" stroke-miterlimit="8" fill="#FAFAFA"/><rect x="1210" y="701" width="92" height="96" stroke="#8FAADC" stroke-width="2" stroke-miterlimit="8" fill="#FAFAFA"/><rect x="-71.5001" y="-67.5001" width="1465" height="865" stroke="#172C51" stroke-width="1.33333" stroke-miterlimit="8" fill="#FAFAFA" fill-opacity="0.509804"/><rect x="-65" y="-87" width="1464" height="864" fill="#FAFAFA" fill-opacity="0.321569"/><path d="M-26 877C-22.3223 871-18.3151 865.282-14.9668 859-9.10947 848.011-3.21222 836.985 1.58296 825.25 2.80891 822.25 3.80789 819.094 5.26069 816.25 6.88504 813.07 9.07724 810.37 10.7772 807.25 13.3078 802.605 18.0619 791.077 21.8104 787 25.114 783.407 29.4693 781.493 32.8435 778 37.4757 773.204 40.9614 766.864 45.7157 762.25 58.7798 749.572 72.6655 738.216 86.1707 726.25 90.4413 722.466 94.1469 717.396 99.0427 715 105.136 712.018 112.975 707.926 119.27 706 127.784 703.396 136.632 702.433 145.014 699.25 154.472 695.659 163.259 689.783 172.597 685.75 189.541 678.433 238.579 657.691 264.54 649.75 268.157 648.643 271.867 647.99 275.573 647.5 294.553 644.989 313.605 643.329 332.578 640.75 346.289 638.886 357.423 637.745 371.194 634 374.979 632.971 378.45 630.567 382.228 629.5 402.246 623.847 388.395 631.485 409.81 622.75 415.286 620.517 428.352 612.83 433.716 609.25 436.853 607.156 439.671 604.349 442.91 602.5 448.892 599.084 455.615 597.609 461.299 593.5 469.214 587.777 476.156 580.233 483.365 573.25 513.5 544.059 497 560.981 516.464 535 519.393 531.091 523.026 527.963 525.659 523.75 533.409 511.348 539.437 498.652 545.886 485.5 546.499 481 546.613 476.354 547.725 472 548.574 468.678 557.132 441.871 560.597 436 566.203 426.503 570.641 414.744 578.986 409 588.793 402.25 598.003 393.992 608.408 388.75 618.828 383.5 629.008 377.472 639.668 373 662.807 363.293 665.885 363.153 683.801 359.5 686.253 358 690.946 358.344 691.156 355 692.338 336.213 687.835 332.936 680.123 323.5 668.205 272.46 672.662 297.375 678.284 190.75 678.86 179.829 687.354 156.382 692.995 148 697.687 141.029 704.029 136 709.545 130 716.901 111.25 724.185 92.4582 731.611 73.75 734.685 66.0079 745.713 38.6298 750 31 757.086 18.388 763.785 12.8043 772.066 1.74998 780.884-10.0199 781.565-12.3094 788.616-25.25 789.842-30.5 790.424-36.0424 792.294-40.9999 796.324-51.6837 801.084-57.1702 808.844-63.5 811.124-65.3606 813.747-66.5 816.199-68 818.651-64.25 821.304-60.6842 823.555-56.7499 825.604-53.1672 827.152-49.1894 829.071-45.4999 836.668-30.8919 844.19-17.2721 856.654-7.2499 878.722 10.494 915.962 29.9321 943.081 33.2501L961.469 35.5C977.406 34.75 993.383 34.8271 1009.28 33.2501 1016.11 32.5724 1022.69 29.6434 1029.51 28.7501 1039.89 27.3894 1050.35 27.25 1060.77 26.5 1077.89 23.5075 1083.97 22 1104.9 22 1157.01 22 1209.1 23.5 1261.2 24.25 1265.49 25.0001 1272.47 21.576 1274.08 26.5 1276.24 33.1062 1270.16 39.9087 1268.56 46.75 1266.48 55.67 1266.31 65.381 1263.04 73.75 1261.74 77.0701 1249.06 96.2727 1244.65 105.25 1234.58 125.797 1237.77 119.419 1229.94 145.75 1228.08 173.061 1226.47 181.295 1229.94 211 1230.33 214.32 1232.29 217.068 1233.62 220 1235.36 223.823 1236.78 227.959 1239.14 231.25 1269.17 273.253 1224.42 201.997 1252.01 247 1252.62 249.25 1253.67 251.388 1253.85 253.75 1256.13 284.456 1251.4 316.75 1259.36 346 1262.23 356.505 1275.05 357.12 1283.27 361.75 1313.69 378.881 1343.32 398.763 1375.21 411.25 1428.24 432.012 1406.54 421.104 1441.41 440.5 1447.54 448 1453.99 455.135 1459.8 463 1474.4 482.746 1476.2 487.468 1487.38 508 1490.28 519.802 1492.04 534.952 1500.26 544 1503.31 547.366 1507.61 548.5 1511.29 550.75 1516.19 556.744 1522 562.398 1524.16 571 1525.61 576.779 1525.39 583 1526 589 1524.16 601 1526.02 614.841 1520.48 625 1519.26 627.25 1518.5 630.019 1516.81 631.75 1514.7 633.897 1511.97 634.929 1509.45 636.25 1486.22 648.431 1461.4 656.669 1439.57 672.25 1432.22 677.5 1424.71 682.436 1417.51 688 1413.05 691.445 1409.08 695.786 1404.64 699.25 1382.42 716.544 1413.02 689.308 1389.92 710.5 1384.01 761.154 1386.8 731.234 1389.92 836.5 1392.17 911.936 1391.76 806.655 1391.76 859" fill="#FAFAFA" fill-rule="evenodd" fill-opacity="0.478431"/><path d="M226 693C228.704 688.149 231.65 683.527 234.111 678.448 238.418 669.563 242.753 660.649 246.278 651.162 247.18 648.737 247.914 646.185 248.982 643.886 250.176 641.315 251.788 639.132 253.038 636.61 254.898 632.855 258.393 623.534 261.149 620.238 263.578 617.333 266.78 615.786 269.261 612.962 272.666 609.085 275.229 603.958 278.724 600.229 288.328 589.979 298.537 580.798 308.466 571.124 311.605 568.065 314.33 563.966 317.929 562.029 322.408 559.618 328.172 556.309 332.8 554.752 339.059 552.647 345.564 551.868 351.726 549.295 358.679 546.392 365.14 541.641 372.005 538.381 384.461 532.465 420.513 515.697 439.6 509.276 442.259 508.382 444.986 507.854 447.711 507.457 461.664 505.427 475.671 504.085 489.62 502 499.7 500.493 507.885 499.57 518.009 496.543 520.792 495.711 523.344 493.767 526.121 492.905 540.838 488.335 530.655 494.509 546.399 487.448 550.424 485.642 560.03 479.428 563.974 476.533 566.281 474.84 568.352 472.571 570.733 471.076 575.131 468.315 580.074 467.122 584.252 463.8 590.072 459.173 595.175 453.074 600.475 447.429 622.63 423.829 610.499 437.51 624.809 416.505 626.962 413.344 629.633 410.815 631.569 407.41 637.267 397.383 641.698 387.119 646.44 376.486 646.89 372.848 646.974 369.092 647.792 365.571 648.415 362.886 654.707 341.213 657.255 336.467 661.376 328.788 664.639 319.282 670.774 314.638 677.984 309.181 684.755 302.505 692.404 298.267 700.065 294.022 707.549 289.149 715.386 285.533 732.398 277.685 734.661 277.573 747.832 274.619 749.634 273.406 753.085 273.685 753.239 270.981 754.108 255.792 750.797 253.143 745.128 245.514 736.366 204.25 739.643 224.393 743.776 138.191 744.199 129.362 750.444 110.405 754.591 103.629 758.041 97.9924 762.703 93.927 766.758 89.0762 772.166 73.9175 777.521 58.7249 782.981 43.6 785.24 37.3408 793.348 15.2065 796.5 9.03809 801.71-1.15825 806.634-5.67254 812.723-14.6095 819.205-24.1251 819.706-25.9761 824.89-36.4381 825.791-40.6825 826.219-45.1633 827.594-49.1714 830.556-57.8088 834.056-62.2445 839.761-67.3619 841.437-68.8661 843.366-69.7873 845.168-71 846.971-67.9683 848.921-65.0854 850.576-61.9047 852.083-59.0082 853.221-55.7923 854.631-52.8095 860.217-40.9994 865.746-29.9882 874.91-21.8856 891.134-7.54034 918.512 8.17471 938.449 10.8572L951.968 12.6762C963.684 12.0698 975.431 12.1322 987.117 10.8572 992.139 10.3094 996.979 7.94133 1001.99 7.21909 1009.62 6.11905 1017.31 6.00636 1024.97 5.39999 1037.56 2.98064 1042.03 1.76188 1057.42 1.76188 1095.72 1.76188 1134.02 2.97462 1172.33 3.58099 1175.48 4.18736 1180.61 1.41909 1181.79 5.39999 1183.38 10.7409 1178.91 16.2404 1177.73 21.7714 1176.2 28.9829 1176.08 36.8339 1173.68 43.6 1172.72 46.2842 1163.4 61.8088 1160.16 69.0667 1152.75 85.6779 1155.1 80.5218 1149.34 101.809 1147.98 123.889 1146.8 130.546 1149.34 154.562 1149.63 157.246 1151.07 159.468 1152.05 161.838 1153.32 164.929 1154.37 168.273 1156.1 170.933 1178.19 204.891 1145.29 147.283 1165.57 183.667 1166.02 185.486 1166.79 187.214 1166.92 189.124 1168.6 213.948 1165.12 240.057 1170.98 263.705 1173.08 272.198 1182.51 272.695 1188.55 276.438 1210.91 290.288 1232.7 306.362 1256.14 316.457 1295.13 333.242 1279.17 324.424 1304.81 340.105 1309.32 346.168 1314.06 351.937 1318.33 358.295 1329.07 374.259 1330.39 378.077 1338.61 394.676 1340.74 404.218 1342.03 416.466 1348.07 423.781 1350.32 426.502 1353.48 427.419 1356.18 429.238 1359.79 434.084 1364.06 438.655 1365.65 445.609 1366.72 450.282 1366.55 455.311 1367 460.162 1365.65 469.864 1367.01 481.054 1362.94 489.267 1362.04 491.086 1361.49 493.324 1360.24 494.724 1358.69 496.46 1356.69 497.294 1354.83 498.362 1337.76 508.21 1319.51 514.87 1303.46 527.467 1298.05 531.711 1292.53 535.702 1287.24 540.2 1283.96 542.985 1281.05 546.495 1277.77 549.295 1261.45 563.277 1283.94 541.257 1266.96 558.391 1262.61 599.343 1264.66 575.154 1266.96 660.257 1268.61 721.244 1268.31 636.129 1268.31 678.448" fill="#FAFAFA" fill-rule="evenodd" fill-opacity="0.368627"/><path d="M311 660C313.348 655.378 315.907 650.973 318.045 646.133 321.785 637.668 325.551 629.173 328.613 620.133 329.395 617.822 330.033 615.391 330.961 613.2 331.998 610.75 333.398 608.67 334.483 606.267 336.099 602.689 339.135 593.807 341.528 590.667 343.638 587.899 346.419 586.425 348.573 583.733 351.531 580.039 353.757 575.154 356.793 571.6 365.135 561.833 374.001 553.085 382.624 543.867 385.351 540.952 387.718 537.046 390.844 535.2 394.734 532.903 399.74 529.75 403.759 528.267 409.196 526.26 414.846 525.519 420.198 523.067 426.237 520.3 431.848 515.773 437.81 512.667 448.63 507.03 479.942 491.051 496.519 484.933 498.829 484.081 501.197 483.578 503.564 483.2 515.683 481.266 527.848 479.987 539.963 478 548.718 476.564 555.827 475.685 564.621 472.8 567.037 472.007 569.254 470.155 571.666 469.333 584.449 464.979 575.604 470.862 589.278 464.133 592.774 462.413 601.118 456.491 604.543 453.733 606.546 452.12 608.345 449.958 610.414 448.533 614.233 445.902 618.526 444.766 622.155 441.6 627.21 437.191 631.642 431.379 636.245 426 655.488 403.512 644.952 416.549 657.38 396.533 659.25 393.522 661.57 391.112 663.251 387.867 668.2 378.313 672.049 368.532 676.167 358.4 676.558 354.933 676.631 351.354 677.341 348 677.883 345.441 683.348 324.789 685.56 320.267 689.14 312.95 691.974 303.891 697.302 299.467 703.564 294.267 709.445 287.905 716.089 283.867 722.743 279.822 729.243 275.178 736.05 271.733 750.825 264.255 752.79 264.148 764.23 261.333 765.795 260.178 768.792 260.443 768.927 257.867 769.681 243.393 766.806 240.869 761.881 233.6 754.271 194.28 757.117 213.474 760.707 131.333 761.075 122.92 766.498 104.858 770.101 98.4 773.097 93.0294 777.146 89.1556 780.668 84.5333 785.365 70.0889 790.016 55.6122 794.758 41.2 796.721 35.2358 803.763 14.1444 806.5 8.26666 811.025-1.44923 815.302-5.7508 820.59-14.2667 826.22-23.3339 826.656-25.0976 831.158-35.0666 831.94-39.1111 832.312-43.3808 833.506-47.1999 836.079-55.4304 839.119-59.6571 844.073-64.5333 845.53-65.9667 847.205-66.8444 848.77-68 850.336-65.1111 852.03-62.3641 853.467-59.3333 854.776-56.5732 855.764-53.5089 856.989-50.6666 861.84-39.413 866.643-28.9207 874.602-21.1999 888.693-7.53058 912.472 7.44397 929.788 10.0001L941.53 11.7333C951.706 11.1555 961.908 11.215 972.058 10.0001 976.42 9.47803 980.623 7.22159 984.974 6.53338 991.601 5.48517 998.281 5.37778 1004.93 4.79999 1015.87 2.49464 1019.75 1.33331 1033.11 1.33331 1066.39 1.33331 1099.65 2.4889 1132.92 3.0667 1135.66 3.6445 1140.11 1.00667 1141.14 4.79999 1142.52 9.88923 1138.64 15.1296 1137.62 20.4 1136.29 27.2717 1136.18 34.7527 1134.09 41.2 1133.26 43.7577 1125.16 58.5508 1122.35 65.4667 1115.92 81.2952 1117.96 76.382 1112.96 96.6666 1111.77 117.706 1110.74 124.049 1112.96 146.933 1113.21 149.491 1114.46 151.608 1115.31 153.867 1116.42 156.812 1117.33 159.998 1118.83 162.533 1138.01 194.891 1109.43 139.998 1127.05 174.667 1127.44 176.4 1128.11 178.047 1128.22 179.867 1129.68 203.521 1126.66 228.4 1131.75 250.933 1133.57 259.026 1141.76 259.5 1147.01 263.067 1166.43 276.264 1185.36 291.581 1205.72 301.2 1239.58 317.194 1225.72 308.791 1247.99 323.733 1251.9 329.511 1256.02 335.008 1259.73 341.067 1269.05 356.278 1270.2 359.916 1277.34 375.733 1279.19 384.825 1280.32 396.496 1285.56 403.467 1287.51 406.059 1290.26 406.933 1292.61 408.667 1295.73 413.284 1299.44 417.64 1300.83 424.267 1301.75 428.719 1301.61 433.511 1302 438.133 1300.83 447.378 1302.01 458.041 1298.48 465.867 1297.69 467.6 1297.21 469.733 1296.13 471.067 1294.78 472.721 1293.04 473.516 1291.43 474.533 1276.6 483.918 1260.75 490.263 1246.81 502.267 1242.12 506.311 1237.32 510.114 1232.72 514.4 1229.88 517.054 1227.35 520.398 1224.5 523.067 1210.32 536.39 1229.86 515.408 1215.11 531.733 1211.33 570.756 1213.11 547.706 1215.11 628.8 1216.54 686.913 1216.29 605.809 1216.29 646.133" fill="#FAFAFA" fill-rule="evenodd" fill-opacity="0.541176"/><path d="M809 452C811.348 447.384 813.907 442.985 816.045 438.152 819.785 429.698 823.551 421.216 826.613 412.188 827.395 409.88 828.033 407.452 828.961 405.264 829.998 402.818 831.398 400.741 832.483 398.34 834.099 394.767 837.135 385.898 839.528 382.762 841.638 379.998 844.419 378.526 846.573 375.838 849.531 372.149 851.757 367.271 854.793 363.721 863.135 353.968 872.001 345.232 880.624 336.026 883.351 333.115 885.718 329.215 888.844 327.371 892.734 325.077 897.74 321.929 901.759 320.448 907.196 318.444 912.846 317.703 918.198 315.255 924.237 312.492 929.848 307.971 935.81 304.869 946.63 299.24 977.942 283.283 994.519 277.174 996.829 276.323 999.197 275.82 1001.56 275.443 1013.68 273.511 1025.85 272.234 1037.96 270.25 1046.72 268.816 1053.83 267.938 1062.62 265.057 1065.04 264.266 1067.25 262.416 1069.67 261.595 1082.45 257.247 1073.6 263.122 1087.28 256.402 1090.77 254.685 1099.12 248.771 1102.54 246.017 1104.55 244.406 1106.35 242.247 1108.41 240.824 1112.23 238.196 1116.53 237.061 1120.16 233.9 1125.21 229.497 1129.64 223.693 1134.25 218.321 1153.49 195.864 1142.95 208.883 1155.38 188.895 1157.25 185.888 1159.57 183.481 1161.25 180.241 1166.2 170.7 1170.05 160.932 1174.17 150.814 1174.56 147.352 1174.63 143.778 1175.34 140.429 1175.88 137.873 1181.35 117.25 1183.56 112.733 1187.14 105.427 1189.97 96.3806 1195.3 91.9619 1201.56 86.7691 1207.45 80.4164 1214.09 76.3834 1220.74 72.3445 1227.24 67.707 1234.05 64.2666 1248.82 56.7988 1250.79 56.6916 1262.23 53.881 1263.8 52.727 1266.79 52.9919 1266.93 50.4191 1267.68 35.9657 1264.81 33.4447 1259.88 26.1857 1252.27-13.08 1255.12 6.08752 1258.71-75.9404 1259.07-84.3418 1264.5-102.38 1268.1-108.829 1271.1-114.192 1275.15-118.06 1278.67-122.676 1283.36-137.101 1288.02-151.558 1292.76-165.95 1294.72-171.906 1301.76-192.968 1304.5-198.838 1309.02-208.541 1313.3-212.836 1318.59-221.34 1324.22-230.395 1324.66-232.157 1329.16-242.112 1329.94-246.151 1330.31-250.415 1331.51-254.229 1334.08-262.448 1337.12-266.669 1342.07-271.538 1343.53-272.969 1345.2-273.846 1346.77-275 1348.34-272.115 1350.03-269.372 1351.47-266.345 1352.78-263.589 1353.76-260.529 1354.99-257.69 1359.84-246.452 1364.64-235.974 1372.6-228.264 1386.69-214.614 1410.47-199.66 1427.79-197.107L1439.53-195.376C1449.71-195.953 1459.91-195.894 1470.06-197.107 1474.42-197.628 1478.62-199.882 1482.97-200.569 1489.6-201.616 1496.28-201.723 1502.93-202.3 1513.87-204.602 1517.75-205.762 1531.11-205.762 1564.39-205.762 1597.65-204.608 1630.92-204.031 1633.66-203.454 1638.11-206.088 1639.14-202.3 1640.52-197.218 1636.64-191.985 1635.62-186.721 1634.29-179.859 1634.18-172.388 1632.09-165.95 1631.26-163.396 1623.16-148.623 1620.35-141.717 1613.92-125.91 1615.96-130.816 1610.96-110.56 1609.77-89.5489 1608.74-83.2145 1610.96-60.3618 1611.21-57.8075 1612.46-55.6938 1613.31-53.4381 1614.42-50.4971 1615.33-47.3153 1616.83-44.7833 1636.01-12.4702 1607.43-67.2882 1625.05-32.6666 1625.44-30.9357 1626.11-29.2909 1626.22-27.4738 1627.68-3.85168 1624.66 20.9929 1629.75 43.4953 1631.57 51.5771 1639.76 52.0497 1645.01 55.6119 1664.43 68.7911 1683.36 84.0869 1703.72 93.6928 1737.58 109.665 1723.72 101.273 1745.99 116.195 1749.9 121.965 1754.02 127.454 1757.73 133.505 1767.05 148.695 1768.2 152.328 1775.34 168.124 1777.19 177.203 1778.32 188.858 1783.56 195.819 1785.51 198.408 1788.26 199.281 1790.61 201.012 1793.73 205.623 1797.44 209.973 1798.83 216.59 1799.75 221.037 1799.61 225.822 1800 230.438 1798.83 239.67 1800.01 250.318 1796.48 258.133 1795.69 259.864 1795.21 261.994 1794.13 263.326 1792.78 264.978 1791.04 265.772 1789.43 266.788 1774.6 276.159 1758.75 282.496 1744.81 294.483 1740.12 298.522 1735.32 302.32 1730.72 306.6 1727.88 309.25 1725.35 312.59 1722.5 315.255 1708.32 328.559 1727.86 307.606 1713.11 323.91 1709.33 362.878 1711.11 339.861 1713.11 420.843 1714.54 478.876 1714.29 397.883 1714.29 438.152" fill="#FAFAFA" fill-rule="evenodd" fill-opacity="0.541176"/><path d="M546 250C548.348 245.384 550.907 240.985 553.045 236.152 556.785 227.698 560.551 219.216 563.613 210.188 564.395 207.88 565.033 205.452 565.961 203.264 566.998 200.818 568.398 198.741 569.483 196.34 571.099 192.767 574.135 183.898 576.528 180.762 578.638 177.998 581.419 176.526 583.573 173.838 586.531 170.149 588.757 165.271 591.793 161.721 600.135 151.968 609.001 143.232 617.624 134.026 620.351 131.115 622.718 127.215 625.844 125.371 629.734 123.077 634.74 119.929 638.759 118.448 644.196 116.444 649.846 115.703 655.198 113.255 661.237 110.492 666.848 105.971 672.81 102.869 683.63 97.2399 714.942 81.2833 731.519 75.1738 733.829 74.3226 736.197 73.8201 738.564 73.4429 750.683 71.5114 762.848 70.2344 774.963 68.2499 783.718 66.8159 790.827 65.9379 799.621 63.0571 802.037 62.2656 804.254 60.4157 806.666 59.5952 819.449 55.2465 810.604 61.1219 824.278 54.4024 827.774 52.6845 836.118 46.7708 839.543 44.0167 841.546 42.4056 843.345 40.2465 845.414 38.8239 849.233 36.1959 853.526 35.0615 857.155 31.9 862.21 27.4971 866.642 21.6935 871.245 16.3214 890.488-6.13565 879.952 6.88303 892.38-13.1047 894.25-16.1122 896.57-18.5186 898.251-21.7595 903.2-31.3002 907.049-41.0677 911.167-51.1857 911.558-54.6476 911.631-58.2216 912.341-61.5714 912.883-64.1272 918.348-84.7504 920.56-89.2667 924.14-96.5731 926.974-105.619 932.302-110.038 938.564-115.231 944.445-121.584 951.089-125.617 957.743-129.656 964.243-134.293 971.05-137.733 985.825-145.201 987.79-145.308 999.23-148.119 1000.8-149.273 1003.79-149.008 1003.93-151.581 1004.68-166.034 1001.81-168.555 996.881-175.814 989.271-215.08 992.117-195.912 995.707-277.94 996.075-286.342 1001.5-304.38 1005.1-310.829 1008.1-316.192 1012.15-320.06 1015.67-324.676 1020.36-339.101 1025.02-353.558 1029.76-367.95 1031.72-373.906 1038.76-394.968 1041.5-400.838 1046.02-410.541 1050.3-414.836 1055.59-423.34 1061.22-432.395 1061.66-434.157 1066.16-444.112 1066.94-448.151 1067.31-452.415 1068.51-456.229 1071.08-464.448 1074.12-468.669 1079.07-473.538 1080.53-474.969 1082.2-475.846 1083.77-477 1085.34-474.115 1087.03-471.372 1088.47-468.345 1089.78-465.589 1090.76-462.529 1091.99-459.69 1096.84-448.452 1101.64-437.974 1109.6-430.264 1123.69-416.614 1147.47-401.66 1164.79-399.107L1176.53-397.376C1186.71-397.953 1196.91-397.894 1207.06-399.107 1211.42-399.628 1215.62-401.882 1219.97-402.569 1226.6-403.616 1233.28-403.723 1239.93-404.3 1250.87-406.602 1254.75-407.762 1268.11-407.762 1301.39-407.762 1334.65-406.608 1367.92-406.031 1370.66-405.454 1375.11-408.088 1376.14-404.3 1377.52-399.218 1373.64-393.985 1372.62-388.721 1371.29-381.859 1371.18-374.388 1369.09-367.95 1368.26-365.396 1360.16-350.623 1357.35-343.717 1350.92-327.91 1352.96-332.816 1347.96-312.56 1346.77-291.549 1345.74-285.214 1347.96-262.362 1348.21-259.807 1349.46-257.694 1350.31-255.438 1351.42-252.497 1352.33-249.315 1353.83-246.783 1373.01-214.47 1344.43-269.288 1362.05-234.667 1362.44-232.936 1363.11-231.291 1363.22-229.474 1364.68-205.852 1361.66-181.007 1366.75-158.505 1368.57-150.423 1376.76-149.95 1382.01-146.388 1401.43-133.209 1420.36-117.913 1440.72-108.307 1474.58-92.3347 1460.72-100.727 1482.99-85.8047 1486.9-80.0349 1491.02-74.546 1494.73-68.4952 1504.05-53.3047 1505.2-49.6718 1512.34-33.8761 1514.19-24.7968 1515.32-13.1416 1520.56-6.18097 1522.51-3.59174 1525.26-2.71902 1527.61-0.988098 1530.73 3.62314 1534.44 7.97278 1535.83 14.5904 1536.75 19.0366 1536.61 23.8222 1537 28.4381 1535.83 37.6699 1537.01 48.3182 1533.48 56.1333 1532.69 57.8643 1532.21 59.9944 1531.13 61.3262 1529.78 62.9781 1528.04 63.7717 1526.43 64.7881 1511.6 74.1594 1495.75 80.4964 1481.81 92.4833 1477.12 96.5223 1472.32 100.32 1467.72 104.6 1464.88 107.25 1462.35 110.59 1459.5 113.255 1445.32 126.559 1464.86 105.606 1450.11 121.91 1446.33 160.878 1448.11 137.861 1450.11 218.843 1451.54 276.876 1451.29 195.883 1451.29 236.152" fill="#FAFAFA" fill-rule="evenodd" fill-opacity="0.541176"/><path d="M672 379C674.348 374.384 676.907 369.985 679.045 365.152 682.785 356.698 686.551 348.216 689.613 339.188 690.395 336.88 691.033 334.452 691.961 332.264 692.998 329.818 694.398 327.741 695.483 325.34 697.099 321.767 700.135 312.898 702.528 309.762 704.638 306.998 707.419 305.526 709.573 302.838 712.531 299.149 714.757 294.271 717.793 290.721 726.135 280.968 735.001 272.232 743.624 263.026 746.351 260.115 748.718 256.215 751.844 254.371 755.734 252.077 760.74 248.929 764.759 247.448 770.196 245.444 775.846 244.703 781.198 242.255 787.237 239.492 792.848 234.971 798.81 231.869 809.63 226.24 840.942 210.283 857.519 204.174 859.829 203.323 862.197 202.82 864.564 202.443 876.683 200.511 888.848 199.234 900.963 197.25 909.718 195.816 916.827 194.938 925.621 192.057 928.037 191.266 930.254 189.416 932.666 188.595 945.449 184.247 936.604 190.122 950.278 183.402 953.774 181.685 962.118 175.771 965.543 173.017 967.546 171.406 969.345 169.247 971.414 167.824 975.233 165.196 979.526 164.061 983.155 160.9 988.21 156.497 992.642 150.693 997.245 145.321 1016.49 122.864 1005.95 135.883 1018.38 115.895 1020.25 112.888 1022.57 110.481 1024.25 107.241 1029.2 97.6998 1033.05 87.9323 1037.17 77.8143 1037.56 74.3524 1037.63 70.7784 1038.34 67.4286 1038.88 64.8728 1044.35 44.2496 1046.56 39.7333 1050.14 32.4269 1052.97 23.3806 1058.3 18.9619 1064.56 13.7691 1070.45 7.41638 1077.09 3.38339 1083.74-0.655518 1090.24-5.293 1097.05-8.73337 1111.82-16.2012 1113.79-16.3084 1125.23-19.119 1126.8-20.273 1129.79-20.0081 1129.93-22.5809 1130.68-37.0343 1127.81-39.5553 1122.88-46.8143 1115.27-86.08 1118.12-66.9125 1121.71-148.94 1122.07-157.342 1127.5-175.38 1131.1-181.829 1134.1-187.192 1138.15-191.06 1141.67-195.676 1146.36-210.101 1151.02-224.558 1155.76-238.95 1157.72-244.906 1164.76-265.968 1167.5-271.838 1172.02-281.541 1176.3-285.836 1181.59-294.34 1187.22-303.395 1187.66-305.157 1192.16-315.112 1192.94-319.151 1193.31-323.415 1194.51-327.229 1197.08-335.448 1200.12-339.669 1205.07-344.538 1206.53-345.969 1208.2-346.846 1209.77-348 1211.34-345.115 1213.03-342.372 1214.47-339.345 1215.78-336.589 1216.76-333.529 1217.99-330.69 1222.84-319.452 1227.64-308.974 1235.6-301.264 1249.69-287.614 1273.47-272.66 1290.79-270.107L1302.53-268.376C1312.71-268.953 1322.91-268.894 1333.06-270.107 1337.42-270.628 1341.62-272.882 1345.97-273.569 1352.6-274.616 1359.28-274.723 1365.93-275.3 1376.87-277.602 1380.75-278.762 1394.11-278.762 1427.39-278.762 1460.65-277.608 1493.92-277.031 1496.66-276.454 1501.11-279.088 1502.14-275.3 1503.52-270.218 1499.64-264.985 1498.62-259.721 1497.29-252.859 1497.18-245.388 1495.09-238.95 1494.26-236.396 1486.16-221.623 1483.35-214.717 1476.92-198.91 1478.96-203.816 1473.96-183.56 1472.77-162.549 1471.74-156.214 1473.96-133.362 1474.21-130.807 1475.46-128.694 1476.31-126.438 1477.42-123.497 1478.33-120.315 1479.83-117.783 1499.01-85.4702 1470.43-140.288 1488.05-105.667 1488.44-103.936 1489.11-102.291 1489.22-100.474 1490.68-76.8517 1487.66-52.0071 1492.75-29.5047 1494.57-21.4229 1502.76-20.9503 1508.01-17.3881 1527.43-4.20886 1546.36 11.0869 1566.72 20.6928 1600.58 36.6653 1586.72 28.2734 1608.99 43.1953 1612.9 48.9651 1617.02 54.454 1620.73 60.5048 1630.05 75.6953 1631.2 79.3282 1638.34 95.1239 1640.19 104.203 1641.32 115.858 1646.56 122.819 1648.51 125.408 1651.26 126.281 1653.61 128.012 1656.73 132.623 1660.44 136.973 1661.83 143.59 1662.75 148.037 1662.61 152.822 1663 157.438 1661.83 166.67 1663.01 177.318 1659.48 185.133 1658.69 186.864 1658.21 188.994 1657.13 190.326 1655.78 191.978 1654.04 192.772 1652.43 193.788 1637.6 203.159 1621.75 209.496 1607.81 221.483 1603.12 225.522 1598.32 229.32 1593.72 233.6 1590.88 236.25 1588.35 239.59 1585.5 242.255 1571.32 255.559 1590.86 234.606 1576.11 250.91 1572.33 289.878 1574.11 266.861 1576.11 347.843 1577.54 405.876 1577.29 324.883 1577.29 365.152" fill="#FAFAFA" fill-rule="evenodd" fill-opacity="0.541176"/><path d="M1067 735C1069.35 730.384 1071.91 725.985 1074.05 721.152 1077.79 712.698 1081.55 704.216 1084.61 695.188 1085.4 692.88 1086.03 690.452 1086.96 688.264 1088 685.818 1089.4 683.741 1090.48 681.34 1092.1 677.767 1095.13 668.898 1097.53 665.762 1099.64 662.998 1102.42 661.526 1104.57 658.838 1107.53 655.149 1109.76 650.271 1112.79 646.721 1121.13 636.968 1130 628.232 1138.62 619.026 1141.35 616.115 1143.72 612.215 1146.84 610.371 1150.73 608.077 1155.74 604.929 1159.76 603.448 1165.2 601.444 1170.85 600.703 1176.2 598.255 1182.24 595.492 1187.85 590.971 1193.81 587.869 1204.63 582.24 1235.94 566.283 1252.52 560.174 1254.83 559.323 1257.2 558.82 1259.56 558.443 1271.68 556.511 1283.85 555.234 1295.96 553.25 1304.72 551.816 1311.83 550.938 1320.62 548.057 1323.04 547.266 1325.25 545.416 1327.67 544.595 1340.45 540.247 1331.6 546.122 1345.28 539.402 1348.77 537.685 1357.12 531.771 1360.54 529.017 1362.55 527.406 1364.35 525.247 1366.41 523.824 1370.23 521.196 1374.53 520.061 1378.16 516.9 1383.21 512.497 1387.64 506.693 1392.25 501.321 1411.49 478.864 1400.95 491.883 1413.38 471.895 1415.25 468.888 1417.57 466.481 1419.25 463.241 1424.2 453.7 1428.05 443.932 1432.17 433.814 1432.56 430.352 1432.63 426.778 1433.34 423.429 1433.88 420.873 1439.35 400.25 1441.56 395.733 1445.14 388.427 1447.97 379.381 1453.3 374.962 1459.56 369.769 1465.45 363.416 1472.09 359.383 1478.74 355.344 1485.24 350.707 1492.05 347.267 1506.82 339.799 1508.79 339.692 1520.23 336.881 1521.8 335.727 1524.79 335.992 1524.93 333.419 1525.68 318.966 1522.81 316.445 1517.88 309.186 1510.27 269.92 1513.12 289.088 1516.71 207.06 1517.07 198.658 1522.5 180.62 1526.1 174.171 1529.1 168.808 1533.15 164.94 1536.67 160.324 1541.36 145.899 1546.02 131.442 1550.76 117.05 1552.72 111.094 1559.76 90.0316 1562.5 84.1619 1567.02 74.4594 1571.3 70.1637 1576.59 61.6595 1582.22 52.6048 1582.66 50.8435 1587.16 40.8881 1587.94 36.8492 1588.31 32.5854 1589.51 28.7715 1592.08 20.5524 1595.12 16.3315 1600.07 11.4619 1601.53 10.0305 1603.2 9.15401 1604.77 8 1606.34 10.8849 1608.03 13.6281 1609.47 16.6548 1610.78 19.4111 1611.76 22.4712 1612.99 25.3096 1617.84 36.5477 1622.64 47.0256 1630.6 54.7358 1644.69 68.3864 1668.47 83.3403 1685.79 85.8929L1697.53 87.6238C1707.71 87.0468 1717.91 87.1062 1728.06 85.8929 1732.42 85.3716 1736.62 83.1183 1740.97 82.431 1747.6 81.3842 1754.28 81.277 1760.93 80.7 1771.87 78.3978 1775.75 77.2381 1789.11 77.2381 1822.39 77.2381 1855.65 78.3921 1888.92 78.9691 1891.66 79.5461 1896.11 76.9119 1897.14 80.7 1898.52 85.7822 1894.64 91.0154 1893.62 96.2785 1892.29 103.141 1892.18 110.612 1890.09 117.05 1889.26 119.604 1881.16 134.377 1878.35 141.283 1871.92 157.09 1873.96 152.184 1868.96 172.44 1867.77 193.451 1866.74 199.786 1868.96 222.638 1869.21 225.193 1870.46 227.306 1871.31 229.562 1872.42 232.503 1873.33 235.685 1874.83 238.217 1894.01 270.53 1865.43 215.712 1883.05 250.333 1883.44 252.064 1884.11 253.709 1884.22 255.526 1885.68 279.148 1882.66 303.993 1887.75 326.495 1889.57 334.577 1897.76 335.05 1903.01 338.612 1922.43 351.791 1941.36 367.087 1961.72 376.693 1995.58 392.665 1981.72 384.273 2003.99 399.195 2007.9 404.965 2012.02 410.454 2015.73 416.505 2025.05 431.695 2026.2 435.328 2033.34 451.124 2035.19 460.203 2036.32 471.858 2041.56 478.819 2043.51 481.408 2046.26 482.281 2048.61 484.012 2051.73 488.623 2055.44 492.973 2056.83 499.59 2057.75 504.037 2057.61 508.822 2058 513.438 2056.83 522.67 2058.01 533.318 2054.48 541.133 2053.69 542.864 2053.21 544.994 2052.13 546.326 2050.78 547.978 2049.04 548.772 2047.43 549.788 2032.6 559.159 2016.75 565.496 2002.81 577.483 1998.12 581.522 1993.32 585.32 1988.72 589.6 1985.88 592.25 1983.35 595.59 1980.5 598.255 1966.32 611.559 1985.86 590.606 1971.11 606.91 1967.33 645.878 1969.11 622.861 1971.11 703.843 1972.54 761.876 1972.29 680.883 1972.29 721.152" fill="#FAFAFA" fill-rule="evenodd" fill-opacity="0.541176"/><path d="M718 984C720.348 979.384 722.907 974.985 725.045 970.152 728.785 961.698 732.551 953.216 735.613 944.188 736.395 941.88 737.033 939.452 737.961 937.264 738.998 934.818 740.398 932.741 741.483 930.34 743.099 926.767 746.135 917.898 748.528 914.762 750.638 911.998 753.419 910.526 755.573 907.838 758.531 904.149 760.757 899.271 763.793 895.721 772.135 885.968 781.001 877.232 789.624 868.026 792.351 865.115 794.718 861.215 797.844 859.371 801.734 857.077 806.74 853.929 810.759 852.448 816.196 850.444 821.846 849.703 827.198 847.255 833.237 844.492 838.848 839.971 844.81 836.869 855.63 831.24 886.942 815.283 903.519 809.174 905.829 808.323 908.197 807.82 910.564 807.443 922.683 805.511 934.848 804.234 946.963 802.25 955.718 800.816 962.827 799.938 971.621 797.057 974.037 796.266 976.254 794.416 978.666 793.595 991.449 789.247 982.604 795.122 996.278 788.402 999.774 786.685 1008.12 780.771 1011.54 778.017 1013.55 776.406 1015.35 774.247 1017.41 772.824 1021.23 770.196 1025.53 769.061 1029.16 765.9 1034.21 761.497 1038.64 755.693 1043.25 750.321 1062.49 727.864 1051.95 740.883 1064.38 720.895 1066.25 717.888 1068.57 715.481 1070.25 712.24 1075.2 702.7 1079.05 692.932 1083.17 682.814 1083.56 679.352 1083.63 675.778 1084.34 672.429 1084.88 669.873 1090.35 649.25 1092.56 644.733 1096.14 637.427 1098.97 628.381 1104.3 623.962 1110.56 618.769 1116.45 612.416 1123.09 608.383 1129.74 604.344 1136.24 599.707 1143.05 596.267 1157.82 588.799 1159.79 588.692 1171.23 585.881 1172.8 584.727 1175.79 584.992 1175.93 582.419 1176.68 567.966 1173.81 565.445 1168.88 558.186 1161.27 518.92 1164.12 538.088 1167.71 456.06 1168.07 447.658 1173.5 429.62 1177.1 423.171 1180.1 417.808 1184.15 413.94 1187.67 409.324 1192.36 394.899 1197.02 380.442 1201.76 366.05 1203.72 360.094 1210.76 339.032 1213.5 333.162 1218.02 323.459 1222.3 319.164 1227.59 310.66 1233.22 301.605 1233.66 299.843 1238.16 289.888 1238.94 285.849 1239.31 281.585 1240.51 277.771 1243.08 269.552 1246.12 265.331 1251.07 260.462 1252.53 259.031 1254.2 258.154 1255.77 257 1257.34 259.885 1259.03 262.628 1260.47 265.655 1261.78 268.411 1262.76 271.471 1263.99 274.31 1268.84 285.548 1273.64 296.026 1281.6 303.736 1295.69 317.386 1319.47 332.34 1336.79 334.893L1348.53 336.624C1358.71 336.047 1368.91 336.106 1379.06 334.893 1383.42 334.372 1387.62 332.118 1391.97 331.431 1398.6 330.384 1405.28 330.277 1411.93 329.7 1422.87 327.398 1426.75 326.238 1440.11 326.238 1473.39 326.238 1506.65 327.392 1539.92 327.969 1542.66 328.546 1547.11 325.912 1548.14 329.7 1549.52 334.782 1545.64 340.015 1544.62 345.279 1543.29 352.141 1543.18 359.612 1541.09 366.05 1540.26 368.604 1532.16 383.377 1529.35 390.283 1522.92 406.09 1524.96 401.184 1519.96 421.44 1518.77 442.451 1517.74 448.786 1519.96 471.638 1520.21 474.193 1521.46 476.306 1522.31 478.562 1523.42 481.503 1524.33 484.685 1525.83 487.217 1545.01 519.53 1516.43 464.712 1534.05 499.333 1534.44 501.064 1535.11 502.709 1535.22 504.526 1536.68 528.148 1533.66 552.993 1538.75 575.495 1540.57 583.577 1548.76 584.05 1554.01 587.612 1573.43 600.791 1592.36 616.087 1612.72 625.693 1646.58 641.665 1632.72 633.273 1654.99 648.195 1658.9 653.965 1663.02 659.454 1666.73 665.505 1676.05 680.695 1677.2 684.328 1684.34 700.124 1686.19 709.203 1687.32 720.858 1692.56 727.819 1694.51 730.408 1697.26 731.281 1699.61 733.012 1702.73 737.623 1706.44 741.973 1707.83 748.59 1708.75 753.037 1708.61 757.822 1709 762.438 1707.83 771.67 1709.01 782.318 1705.48 790.133 1704.69 791.864 1704.21 793.994 1703.13 795.326 1701.78 796.978 1700.04 797.772 1698.43 798.788 1683.6 808.159 1667.75 814.496 1653.81 826.483 1649.12 830.522 1644.32 834.32 1639.72 838.6 1636.88 841.25 1634.35 844.59 1631.5 847.255 1617.32 860.559 1636.86 839.606 1622.11 855.91 1618.33 894.878 1620.11 871.861 1622.11 952.843 1623.54 1010.88 1623.29 929.883 1623.29 970.152" fill="#FAFAFA" fill-rule="evenodd" fill-opacity="0.541176"/><path d="M317 994C319.346 989.378 321.902 984.973 324.038 980.133 327.774 971.668 331.536 963.173 334.595 954.133 335.377 951.822 336.014 949.391 336.941 947.2 337.977 944.75 339.375 942.67 340.46 940.267 342.074 936.689 345.107 927.807 347.498 924.667 349.605 921.899 352.383 920.425 354.536 917.733 357.49 914.039 359.714 909.154 362.746 905.6 371.08 895.833 379.937 887.085 388.552 877.867 391.276 874.952 393.64 871.046 396.763 869.2 400.65 866.903 405.65 863.75 409.666 862.267 415.097 860.26 420.741 859.519 426.088 857.067 432.121 854.3 437.726 849.773 443.682 846.667 454.491 841.03 485.771 825.051 502.332 818.933 504.639 818.081 507.005 817.578 509.37 817.2 521.477 815.266 533.629 813.987 545.732 812 554.478 810.564 561.58 809.685 570.365 806.8 572.779 806.007 574.993 804.155 577.403 803.333 590.173 798.979 581.337 804.862 594.998 798.133 598.49 796.413 606.825 790.491 610.246 787.733 612.248 786.12 614.045 783.958 616.111 782.533 619.927 779.902 624.216 778.766 627.841 775.6 632.891 771.191 637.319 765.379 641.917 760 661.14 737.512 650.615 750.549 663.031 730.533 664.899 727.522 667.216 725.112 668.896 721.867 673.84 712.313 677.685 702.532 681.799 692.4 682.19 688.933 682.262 685.354 682.972 682 683.513 679.441 688.972 658.789 691.182 654.267 694.758 646.95 697.589 637.891 702.912 633.467 709.168 628.267 715.043 621.905 721.68 617.867 728.327 613.822 734.821 609.178 741.621 605.733 756.381 598.255 758.344 598.148 769.772 595.333 771.336 594.178 774.33 594.443 774.464 591.867 775.218 577.393 772.346 574.869 767.427 567.6 759.824 528.28 762.667 547.474 766.254 465.333 766.621 456.92 772.039 438.858 775.637 432.4 778.63 427.029 782.675 423.156 786.194 418.533 790.886 404.089 795.533 389.612 800.27 375.2 802.231 369.236 809.265 348.144 812 342.267 816.52 332.551 820.793 328.249 826.076 319.733 831.701 310.666 832.135 308.902 836.633 298.933 837.415 294.889 837.786 290.619 838.979 286.8 841.549 278.57 844.586 274.343 849.536 269.467 850.99 268.033 852.664 267.156 854.227 266 855.791 268.889 857.484 271.636 858.919 274.667 860.227 277.427 861.214 280.491 862.438 283.333 867.285 294.587 872.082 305.079 880.033 312.8 894.11 326.469 917.865 341.444 935.164 344L946.893 345.733C957.059 345.156 967.251 345.215 977.391 344 981.748 343.478 985.947 341.222 990.294 340.533 996.914 339.485 1003.59 339.378 1010.23 338.8 1021.16 336.495 1025.03 335.333 1038.39 335.333 1071.62 335.333 1104.86 336.489 1138.09 337.067 1140.83 337.645 1145.27 335.007 1146.3 338.8 1147.68 343.889 1143.8 349.13 1142.78 354.4 1141.45 361.272 1141.35 368.753 1139.26 375.2 1138.44 377.758 1130.34 392.551 1127.53 399.467 1121.11 415.295 1123.14 410.382 1118.15 430.667 1116.96 451.706 1115.94 458.049 1118.15 480.933 1118.4 483.491 1119.65 485.608 1120.5 487.867 1121.6 490.812 1122.51 493.998 1124.01 496.533 1143.17 528.891 1114.63 473.998 1132.23 508.667 1132.62 510.4 1133.29 512.047 1133.4 513.867 1134.85 537.521 1131.83 562.4 1136.92 584.933 1138.74 593.026 1146.92 593.5 1152.17 597.067 1171.57 610.264 1190.47 625.581 1210.82 635.2 1244.64 651.194 1230.8 642.791 1253.04 657.733 1256.95 663.511 1261.06 669.008 1264.77 675.067 1274.09 690.278 1275.23 693.916 1282.37 709.733 1284.21 718.825 1285.34 730.496 1290.58 737.467 1292.53 740.059 1295.27 740.933 1297.62 742.667 1300.74 747.284 1304.45 751.64 1305.83 758.267 1306.75 762.719 1306.61 767.511 1307 772.133 1305.83 781.378 1307.01 792.041 1303.48 799.867 1302.7 801.6 1302.22 803.733 1301.14 805.067 1299.79 806.721 1298.05 807.516 1296.44 808.533 1281.63 817.918 1265.79 824.263 1251.87 836.267 1247.18 840.311 1242.39 844.114 1237.79 848.4 1234.95 851.054 1232.42 854.398 1229.58 857.067 1215.41 870.39 1234.93 849.408 1220.2 865.733 1216.43 904.756 1218.2 881.706 1220.2 962.8 1221.63 1020.91 1221.37 939.809 1221.37 980.133" fill="#FAFAFA" fill-rule="evenodd" fill-opacity="0.541176"/><path d="M-12 1084C-9.65165 1079.38-7.09298 1074.99-4.95496 1070.15-1.21488 1061.7 2.5507 1053.22 5.61257 1044.19 6.39538 1041.88 7.03326 1039.45 7.96092 1037.26 8.99812 1034.82 10.3979 1032.74 11.4834 1030.34 13.0992 1026.77 16.1349 1017.9 18.5285 1014.76 20.6379 1012 23.4189 1010.53 25.5734 1007.84 28.5312 1004.15 30.7569 999.271 33.7927 995.721 42.1345 985.968 51.001 977.232 59.6244 968.026 62.3514 965.115 64.7175 961.215 67.8436 959.371 71.7342 957.077 76.7399 953.929 80.7595 952.448 86.196 950.444 91.8458 949.703 97.1979 947.255 103.237 944.492 108.848 939.971 114.81 936.869 125.63 931.24 156.942 915.283 173.519 909.174 175.829 908.323 178.197 907.82 180.564 907.443 192.683 905.511 204.848 904.234 216.963 902.25 225.718 900.816 232.827 899.938 241.621 897.057 244.037 896.266 246.254 894.416 248.666 893.595 261.449 889.247 252.604 895.122 266.278 888.402 269.774 886.685 278.118 880.771 281.543 878.017 283.546 876.406 285.345 874.247 287.414 872.824 291.233 870.196 295.526 869.061 299.155 865.9 304.21 861.497 308.642 855.693 313.245 850.321 332.488 827.864 321.952 840.883 334.38 820.895 336.25 817.888 338.57 815.481 340.251 812.24 345.2 802.7 349.049 792.932 353.167 782.814 353.558 779.352 353.631 775.778 354.341 772.429 354.883 769.873 360.348 749.25 362.56 744.733 366.14 737.427 368.974 728.381 374.302 723.962 380.564 718.769 386.445 712.416 393.089 708.383 399.743 704.344 406.243 699.707 413.05 696.267 427.825 688.799 429.79 688.692 441.23 685.881 442.795 684.727 445.792 684.992 445.927 682.419 446.681 667.966 443.806 665.445 438.882 658.186 431.271 618.92 434.117 638.088 437.707 556.06 438.075 547.658 443.498 529.62 447.101 523.171 450.097 517.808 454.146 513.94 457.668 509.324 462.365 494.899 467.016 480.442 471.758 466.05 473.721 460.094 480.763 439.032 483.5 433.162 488.025 423.459 492.302 419.164 497.59 410.66 503.22 401.605 503.656 399.843 508.158 389.888 508.94 385.849 509.312 381.585 510.506 377.771 513.079 369.552 516.119 365.331 521.073 360.462 522.53 359.031 524.205 358.154 525.77 357 527.336 359.885 529.03 362.628 530.467 365.655 531.776 368.411 532.764 371.471 533.989 374.31 538.84 385.548 543.643 396.026 551.602 403.736 565.693 417.386 589.472 432.34 606.788 434.893L618.53 436.624C628.706 436.047 638.908 436.106 649.058 434.893 653.42 434.372 657.623 432.118 661.974 431.431 668.601 430.384 675.281 430.277 681.935 429.7 692.867 427.398 696.749 426.238 710.115 426.238 743.385 426.238 776.651 427.392 809.919 427.969 812.659 428.546 817.111 425.912 818.139 429.7 819.518 434.782 815.636 440.015 814.616 445.279 813.286 452.141 813.182 459.612 811.094 466.05 810.265 468.604 802.163 483.377 799.352 490.283 792.918 506.09 794.955 501.184 789.958 521.44 788.771 542.451 787.744 548.786 789.958 571.638 790.206 574.193 791.457 576.306 792.307 578.562 793.415 581.503 794.327 584.685 795.829 587.217 815.009 619.53 786.435 564.712 804.049 599.333 804.44 601.064 805.111 602.709 805.223 604.526 806.679 628.148 803.657 652.993 808.745 675.495 810.573 683.577 818.76 684.05 824.009 687.612 843.431 700.791 862.355 716.087 882.718 725.693 916.576 741.665 902.72 733.273 924.988 748.195 928.902 753.965 933.016 759.454 936.73 765.505 946.053 780.695 947.199 784.328 954.342 800.124 956.19 809.203 957.315 820.858 962.562 827.819 964.513 830.408 967.258 831.281 969.607 833.012 972.735 837.623 976.445 841.973 977.826 848.59 978.754 853.037 978.609 857.822 979 862.438 977.826 871.67 979.012 882.318 975.477 890.133 974.695 891.864 974.213 893.994 973.129 895.326 971.785 896.978 970.041 897.772 968.432 898.788 953.6 908.159 937.753 914.496 923.814 926.483 919.117 930.522 914.321 934.32 909.724 938.6 906.877 941.25 904.345 944.59 901.505 947.255 887.322 960.559 906.857 939.606 892.111 955.91 888.335 994.878 890.114 971.861 892.111 1052.84 893.543 1110.88 893.286 1029.88 893.286 1070.15" fill="#FAFAFA" fill-rule="evenodd" fill-opacity="0.541176"/><path d="M327 676C329.348 671.378 331.907 666.973 334.045 662.133 337.785 653.668 341.551 645.173 344.613 636.133 345.395 633.822 346.033 631.391 346.961 629.2 347.998 626.75 349.398 624.67 350.483 622.267 352.099 618.689 355.135 609.807 357.528 606.667 359.638 603.899 362.419 602.425 364.573 599.733 367.531 596.039 369.757 591.154 372.793 587.6 381.135 577.833 390.001 569.085 398.624 559.867 401.351 556.952 403.718 553.046 406.844 551.2 410.734 548.903 415.74 545.75 419.759 544.267 425.196 542.26 430.846 541.519 436.198 539.067 442.237 536.3 447.848 531.773 453.81 528.667 464.63 523.03 495.942 507.051 512.519 500.933 514.829 500.081 517.197 499.578 519.564 499.2 531.683 497.266 543.848 495.987 555.963 494 564.718 492.564 571.827 491.685 580.621 488.8 583.037 488.007 585.254 486.155 587.666 485.333 600.449 480.979 591.604 486.862 605.278 480.133 608.774 478.413 617.118 472.491 620.543 469.733 622.546 468.12 624.345 465.958 626.414 464.533 630.233 461.902 634.526 460.766 638.155 457.6 643.21 453.191 647.642 447.379 652.245 442 671.488 419.512 660.952 432.549 673.38 412.533 675.25 409.522 677.57 407.112 679.251 403.867 684.2 394.313 688.049 384.532 692.167 374.4 692.558 370.933 692.631 367.354 693.341 364 693.883 361.441 699.348 340.789 701.56 336.267 705.14 328.95 707.974 319.891 713.302 315.467 719.564 310.267 725.445 303.905 732.089 299.867 738.743 295.822 745.243 291.178 752.05 287.733 766.825 280.255 768.79 280.148 780.23 277.333 781.795 276.178 784.792 276.443 784.927 273.867 785.681 259.393 782.806 256.869 777.881 249.6 770.271 210.28 773.117 229.474 776.707 147.333 777.075 138.92 782.498 120.858 786.101 114.4 789.097 109.029 793.146 105.156 796.668 100.533 801.365 86.0889 806.016 71.6122 810.758 57.2 812.721 51.2358 819.763 30.1444 822.5 24.2667 827.025 14.5508 831.302 10.2492 836.59 1.73332 842.22-7.33388 842.656-9.0976 847.158-19.0666 847.94-23.1111 848.312-27.3808 849.506-31.1999 852.079-39.4304 855.119-43.6571 860.073-48.5333 861.53-49.9667 863.205-50.8444 864.77-52 866.336-49.1111 868.03-46.3641 869.467-43.3333 870.776-40.5732 871.764-37.5089 872.989-34.6666 877.84-23.413 882.643-12.9207 890.602-5.19992 904.693 8.46942 928.472 23.444 945.788 26.0001L957.53 27.7333C967.706 27.1555 977.908 27.215 988.058 26.0001 992.42 25.478 996.623 23.2216 1000.97 22.5334 1007.6 21.4852 1014.28 21.3778 1020.93 20.8 1031.87 18.4946 1035.75 17.3333 1049.11 17.3333 1082.39 17.3333 1115.65 18.4889 1148.92 19.0667 1151.66 19.6445 1156.11 17.0067 1157.14 20.8 1158.52 25.8892 1154.64 31.1296 1153.62 36.4 1152.29 43.2717 1152.18 50.7527 1150.09 57.2 1149.26 59.7577 1141.16 74.5508 1138.35 81.4667 1131.92 97.2952 1133.96 92.382 1128.96 112.667 1127.77 133.706 1126.74 140.049 1128.96 162.933 1129.21 165.491 1130.46 167.608 1131.31 169.867 1132.42 172.812 1133.33 175.998 1134.83 178.533 1154.01 210.891 1125.43 155.998 1143.05 190.667 1143.44 192.4 1144.11 194.047 1144.22 195.867 1145.68 219.521 1142.66 244.4 1147.75 266.933 1149.57 275.026 1157.76 275.5 1163.01 279.067 1182.43 292.264 1201.36 307.581 1221.72 317.2 1255.58 333.194 1241.72 324.791 1263.99 339.733 1267.9 345.511 1272.02 351.008 1275.73 357.067 1285.05 372.278 1286.2 375.916 1293.34 391.733 1295.19 400.825 1296.32 412.496 1301.56 419.467 1303.51 422.059 1306.26 422.933 1308.61 424.667 1311.73 429.284 1315.44 433.64 1316.83 440.267 1317.75 444.719 1317.61 449.511 1318 454.133 1316.83 463.378 1318.01 474.041 1314.48 481.867 1313.69 483.6 1313.21 485.733 1312.13 487.067 1310.78 488.721 1309.04 489.516 1307.43 490.533 1292.6 499.918 1276.75 506.263 1262.81 518.267 1258.12 522.311 1253.32 526.114 1248.72 530.4 1245.88 533.054 1243.35 536.398 1240.5 539.067 1226.32 552.39 1245.86 531.408 1231.11 547.733 1227.33 586.756 1229.11 563.706 1231.11 644.8 1232.54 702.913 1232.29 621.809 1232.29 662.133" fill="#FAFAFA" fill-rule="evenodd" fill-opacity="0.541176"/><path d="M877 1119C879.348 1114.38 881.907 1109.99 884.045 1105.15 887.785 1096.7 891.551 1088.22 894.613 1079.19 895.395 1076.88 896.033 1074.45 896.961 1072.26 897.998 1069.82 899.398 1067.74 900.483 1065.34 902.099 1061.77 905.135 1052.9 907.528 1049.76 909.638 1047 912.419 1045.53 914.573 1042.84 917.531 1039.15 919.757 1034.27 922.793 1030.72 931.135 1020.97 940.001 1012.23 948.624 1003.03 951.351 1000.12 953.718 996.215 956.844 994.371 960.734 992.077 965.74 988.929 969.759 987.448 975.196 985.444 980.846 984.703 986.198 982.255 992.237 979.492 997.848 974.971 1003.81 971.869 1014.63 966.24 1045.94 950.283 1062.52 944.174 1064.83 943.323 1067.2 942.82 1069.56 942.443 1081.68 940.511 1093.85 939.234 1105.96 937.25 1114.72 935.816 1121.83 934.938 1130.62 932.057 1133.04 931.266 1135.25 929.416 1137.67 928.595 1150.45 924.247 1141.6 930.122 1155.28 923.402 1158.77 921.685 1167.12 915.771 1170.54 913.017 1172.55 911.406 1174.35 909.247 1176.41 907.824 1180.23 905.196 1184.53 904.061 1188.16 900.9 1193.21 896.497 1197.64 890.693 1202.25 885.321 1221.49 862.864 1210.95 875.883 1223.38 855.895 1225.25 852.888 1227.57 850.481 1229.25 847.24 1234.2 837.7 1238.05 827.932 1242.17 817.814 1242.56 814.352 1242.63 810.778 1243.34 807.429 1243.88 804.873 1249.35 784.25 1251.56 779.733 1255.14 772.427 1257.97 763.381 1263.3 758.962 1269.56 753.769 1275.45 747.416 1282.09 743.383 1288.74 739.344 1295.24 734.707 1302.05 731.267 1316.82 723.799 1318.79 723.692 1330.23 720.881 1331.8 719.727 1334.79 719.992 1334.93 717.419 1335.68 702.966 1332.81 700.445 1327.88 693.186 1320.27 653.92 1323.12 673.088 1326.71 591.06 1327.07 582.658 1332.5 564.62 1336.1 558.171 1339.1 552.808 1343.15 548.94 1346.67 544.324 1351.36 529.899 1356.02 515.442 1360.76 501.05 1362.72 495.094 1369.76 474.032 1372.5 468.162 1377.02 458.459 1381.3 454.164 1386.59 445.66 1392.22 436.605 1392.66 434.843 1397.16 424.888 1397.94 420.849 1398.31 416.585 1399.51 412.771 1402.08 404.552 1405.12 400.331 1410.07 395.462 1411.53 394.031 1413.2 393.154 1414.77 392 1416.34 394.885 1418.03 397.628 1419.47 400.655 1420.78 403.411 1421.76 406.471 1422.99 409.31 1427.84 420.548 1432.64 431.026 1440.6 438.736 1454.69 452.386 1478.47 467.34 1495.79 469.893L1507.53 471.624C1517.71 471.047 1527.91 471.106 1538.06 469.893 1542.42 469.372 1546.62 467.118 1550.97 466.431 1557.6 465.384 1564.28 465.277 1570.93 464.7 1581.87 462.398 1585.75 461.238 1599.11 461.238 1632.39 461.238 1665.65 462.392 1698.92 462.969 1701.66 463.546 1706.11 460.912 1707.14 464.7 1708.52 469.782 1704.64 475.015 1703.62 480.279 1702.29 487.141 1702.18 494.612 1700.09 501.05 1699.26 503.604 1691.16 518.377 1688.35 525.283 1681.92 541.09 1683.96 536.184 1678.96 556.44 1677.77 577.451 1676.74 583.786 1678.96 606.638 1679.21 609.193 1680.46 611.306 1681.31 613.562 1682.42 616.503 1683.33 619.685 1684.83 622.217 1704.01 654.53 1675.43 599.712 1693.05 634.333 1693.44 636.064 1694.11 637.709 1694.22 639.526 1695.68 663.148 1692.66 687.993 1697.75 710.495 1699.57 718.577 1707.76 719.05 1713.01 722.612 1732.43 735.791 1751.36 751.087 1771.72 760.693 1805.58 776.665 1791.72 768.273 1813.99 783.195 1817.9 788.965 1822.02 794.454 1825.73 800.505 1835.05 815.695 1836.2 819.328 1843.34 835.124 1845.19 844.203 1846.32 855.858 1851.56 862.819 1853.51 865.408 1856.26 866.281 1858.61 868.012 1861.73 872.623 1865.44 876.973 1866.83 883.59 1867.75 888.037 1867.61 892.822 1868 897.438 1866.83 906.67 1868.01 917.318 1864.48 925.133 1863.69 926.864 1863.21 928.994 1862.13 930.326 1860.78 931.978 1859.04 932.772 1857.43 933.788 1842.6 943.159 1826.75 949.496 1812.81 961.483 1808.12 965.522 1803.32 969.32 1798.72 973.6 1795.88 976.25 1793.35 979.59 1790.5 982.255 1776.32 995.559 1795.86 974.606 1781.11 990.91 1777.33 1029.88 1779.11 1006.86 1781.11 1087.84 1782.54 1145.88 1782.29 1064.88 1782.29 1105.15" fill="#FAFAFA" fill-rule="evenodd" fill-opacity="0.541176"/><path d="M789 726C791.348 721.384 793.907 716.985 796.045 712.152 799.785 703.698 803.551 695.216 806.613 686.188 807.395 683.88 808.033 681.452 808.961 679.264 809.998 676.818 811.398 674.741 812.483 672.34 814.099 668.767 817.135 659.898 819.528 656.762 821.638 653.998 824.419 652.526 826.573 649.838 829.531 646.149 831.757 641.271 834.793 637.721 843.135 627.968 852.001 619.232 860.624 610.026 863.351 607.115 865.718 603.215 868.844 601.371 872.734 599.077 877.74 595.929 881.759 594.448 887.196 592.444 892.846 591.703 898.198 589.255 904.237 586.492 909.848 581.971 915.81 578.869 926.63 573.24 957.942 557.283 974.519 551.174 976.829 550.323 979.197 549.82 981.564 549.443 993.683 547.511 1005.85 546.234 1017.96 544.25 1026.72 542.816 1033.83 541.938 1042.62 539.057 1045.04 538.266 1047.25 536.416 1049.67 535.595 1062.45 531.247 1053.6 537.122 1067.28 530.402 1070.77 528.685 1079.12 522.771 1082.54 520.017 1084.55 518.406 1086.35 516.247 1088.41 514.824 1092.23 512.196 1096.53 511.061 1100.16 507.9 1105.21 503.497 1109.64 497.693 1114.25 492.321 1133.49 469.864 1122.95 482.883 1135.38 462.895 1137.25 459.888 1139.57 457.481 1141.25 454.241 1146.2 444.7 1150.05 434.932 1154.17 424.814 1154.56 421.352 1154.63 417.778 1155.34 414.429 1155.88 411.873 1161.35 391.25 1163.56 386.733 1167.14 379.427 1169.97 370.381 1175.3 365.962 1181.56 360.769 1187.45 354.416 1194.09 350.383 1200.74 346.344 1207.24 341.707 1214.05 338.267 1228.82 330.799 1230.79 330.692 1242.23 327.881 1243.8 326.727 1246.79 326.992 1246.93 324.419 1247.68 309.966 1244.81 307.445 1239.88 300.186 1232.27 260.92 1235.12 280.088 1238.71 198.06 1239.07 189.658 1244.5 171.62 1248.1 165.171 1251.1 159.808 1255.15 155.94 1258.67 151.324 1263.36 136.899 1268.02 122.442 1272.76 108.05 1274.72 102.094 1281.76 81.0316 1284.5 75.1619 1289.02 65.4594 1293.3 61.1637 1298.59 52.6595 1304.22 43.6048 1304.66 41.8435 1309.16 31.8881 1309.94 27.8492 1310.31 23.5854 1311.51 19.7715 1314.08 11.5524 1317.12 7.33146 1322.07 2.46191 1323.53 1.03055 1325.2 0.154006 1326.77-1 1328.34 1.88491 1330.03 4.62812 1331.47 7.65484 1332.78 10.4111 1333.76 13.4712 1334.99 16.3096 1339.84 27.5477 1344.64 38.0256 1352.6 45.7358 1366.69 59.3864 1390.47 74.3403 1407.79 76.8929L1419.53 78.6238C1429.71 78.0468 1439.91 78.1062 1450.06 76.8929 1454.42 76.3716 1458.62 74.1183 1462.97 73.431 1469.6 72.3842 1476.28 72.277 1482.93 71.7 1493.87 69.3978 1497.75 68.2381 1511.11 68.2381 1544.39 68.2381 1577.65 69.3921 1610.92 69.9691 1613.66 70.5461 1618.11 67.9119 1619.14 71.7 1620.52 76.7822 1616.64 82.0154 1615.62 87.2785 1614.29 94.1408 1614.18 101.612 1612.09 108.05 1611.26 110.604 1603.16 125.377 1600.35 132.283 1593.92 148.09 1595.96 143.184 1590.96 163.44 1589.77 184.451 1588.74 190.786 1590.96 213.638 1591.21 216.193 1592.46 218.306 1593.31 220.562 1594.42 223.503 1595.33 226.685 1596.83 229.217 1616.01 261.53 1587.43 206.712 1605.05 241.333 1605.44 243.064 1606.11 244.709 1606.22 246.526 1607.68 270.148 1604.66 294.993 1609.75 317.495 1611.57 325.577 1619.76 326.05 1625.01 329.612 1644.43 342.791 1663.36 358.087 1683.72 367.693 1717.58 383.665 1703.72 375.273 1725.99 390.195 1729.9 395.965 1734.02 401.454 1737.73 407.505 1747.05 422.695 1748.2 426.328 1755.34 442.124 1757.19 451.203 1758.32 462.858 1763.56 469.819 1765.51 472.408 1768.26 473.281 1770.61 475.012 1773.73 479.623 1777.44 483.973 1778.83 490.59 1779.75 495.037 1779.61 499.822 1780 504.438 1778.83 513.67 1780.01 524.318 1776.48 532.133 1775.69 533.864 1775.21 535.994 1774.13 537.326 1772.78 538.978 1771.04 539.772 1769.43 540.788 1754.6 550.159 1738.75 556.496 1724.81 568.483 1720.12 572.522 1715.32 576.32 1710.72 580.6 1707.88 583.25 1705.35 586.59 1702.5 589.255 1688.32 602.559 1707.86 581.606 1693.11 597.91 1689.33 636.878 1691.11 613.861 1693.11 694.843 1694.54 752.876 1694.29 671.883 1694.29 712.152" fill="#FAFAFA" fill-rule="evenodd" fill-opacity="0.541176"/><path d="M406 1219C408.348 1214.38 410.907 1209.99 413.045 1205.15 416.785 1196.7 420.551 1188.22 423.613 1179.19 424.395 1176.88 425.033 1174.45 425.961 1172.26 426.998 1169.82 428.398 1167.74 429.483 1165.34 431.099 1161.77 434.135 1152.9 436.528 1149.76 438.638 1147 441.419 1145.53 443.573 1142.84 446.531 1139.15 448.757 1134.27 451.793 1130.72 460.135 1120.97 469.001 1112.23 477.624 1103.03 480.351 1100.12 482.718 1096.21 485.844 1094.37 489.734 1092.08 494.74 1088.93 498.759 1087.45 504.196 1085.44 509.846 1084.7 515.198 1082.25 521.237 1079.49 526.848 1074.97 532.81 1071.87 543.63 1066.24 574.942 1050.28 591.519 1044.17 593.829 1043.32 596.197 1042.82 598.564 1042.44 610.683 1040.51 622.848 1039.23 634.963 1037.25 643.718 1035.82 650.827 1034.94 659.621 1032.06 662.037 1031.27 664.254 1029.42 666.666 1028.6 679.449 1024.25 670.604 1030.12 684.278 1023.4 687.774 1021.68 696.118 1015.77 699.543 1013.02 701.546 1011.41 703.345 1009.25 705.414 1007.82 709.233 1005.2 713.526 1004.06 717.155 1000.9 722.21 996.497 726.642 990.693 731.245 985.321 750.488 962.864 739.952 975.883 752.38 955.895 754.25 952.888 756.57 950.481 758.251 947.24 763.2 937.7 767.049 927.932 771.167 917.814 771.558 914.352 771.631 910.778 772.341 907.429 772.883 904.873 778.348 884.25 780.56 879.733 784.14 872.427 786.974 863.381 792.302 858.962 798.564 853.769 804.445 847.416 811.089 843.383 817.743 839.344 824.243 834.707 831.05 831.267 845.825 823.799 847.79 823.692 859.23 820.881 860.795 819.727 863.792 819.992 863.927 817.419 864.681 802.966 861.806 800.445 856.881 793.186 849.271 753.92 852.117 773.088 855.707 691.06 856.075 682.658 861.498 664.62 865.101 658.171 868.097 652.808 872.146 648.94 875.668 644.324 880.365 629.899 885.016 615.442 889.758 601.05 891.721 595.094 898.763 574.032 901.5 568.162 906.025 558.459 910.302 554.164 915.59 545.659 921.22 536.605 921.656 534.843 926.158 524.888 926.94 520.849 927.312 516.585 928.506 512.771 931.079 504.552 934.119 500.331 939.073 495.462 940.53 494.031 942.205 493.154 943.77 492 945.336 494.885 947.03 497.628 948.467 500.655 949.776 503.411 950.764 506.471 951.989 509.31 956.84 520.548 961.643 531.026 969.602 538.736 983.693 552.386 1007.47 567.34 1024.79 569.893L1036.53 571.624C1046.71 571.047 1056.91 571.106 1067.06 569.893 1071.42 569.372 1075.62 567.118 1079.97 566.431 1086.6 565.384 1093.28 565.277 1099.93 564.7 1110.87 562.398 1114.75 561.238 1128.11 561.238 1161.39 561.238 1194.65 562.392 1227.92 562.969 1230.66 563.546 1235.11 560.912 1236.14 564.7 1237.52 569.782 1233.64 575.015 1232.62 580.279 1231.29 587.141 1231.18 594.612 1229.09 601.05 1228.26 603.604 1220.16 618.377 1217.35 625.283 1210.92 641.09 1212.96 636.184 1207.96 656.44 1206.77 677.451 1205.74 683.786 1207.96 706.638 1208.21 709.193 1209.46 711.306 1210.31 713.562 1211.42 716.503 1212.33 719.685 1213.83 722.217 1233.01 754.53 1204.43 699.712 1222.05 734.333 1222.44 736.064 1223.11 737.709 1223.22 739.526 1224.68 763.148 1221.66 787.993 1226.75 810.495 1228.57 818.577 1236.76 819.05 1242.01 822.612 1261.43 835.791 1280.36 851.087 1300.72 860.693 1334.58 876.665 1320.72 868.273 1342.99 883.195 1346.9 888.965 1351.02 894.454 1354.73 900.505 1364.05 915.695 1365.2 919.328 1372.34 935.124 1374.19 944.203 1375.32 955.858 1380.56 962.819 1382.51 965.408 1385.26 966.281 1387.61 968.012 1390.73 972.623 1394.44 976.973 1395.83 983.59 1396.75 988.037 1396.61 992.822 1397 997.438 1395.83 1006.67 1397.01 1017.32 1393.48 1025.13 1392.69 1026.86 1392.21 1028.99 1391.13 1030.33 1389.78 1031.98 1388.04 1032.77 1386.43 1033.79 1371.6 1043.16 1355.75 1049.5 1341.81 1061.48 1337.12 1065.52 1332.32 1069.32 1327.72 1073.6 1324.88 1076.25 1322.35 1079.59 1319.5 1082.25 1305.32 1095.56 1324.86 1074.61 1310.11 1090.91 1306.33 1129.88 1308.11 1106.86 1310.11 1187.84 1311.54 1245.88 1311.29 1164.88 1311.29 1205.15" fill="#FAFAFA" fill-rule="evenodd" fill-opacity="0.768627"/><path d="M65 987C67.3484 982.378 69.907 977.973 72.045 973.133 75.7851 964.668 79.5507 956.173 82.6126 947.133 83.3954 944.822 84.0333 942.391 84.9609 940.2 85.9981 937.75 87.3979 935.67 88.4834 933.267 90.0992 929.689 93.1349 920.807 95.5285 917.667 97.6379 914.899 100.419 913.425 102.573 910.733 105.531 907.039 107.757 902.154 110.793 898.6 119.135 888.833 128.001 880.085 136.624 870.867 139.351 867.952 141.718 864.046 144.844 862.2 148.734 859.903 153.74 856.75 157.759 855.267 163.196 853.26 168.846 852.519 174.198 850.067 180.237 847.3 185.848 842.773 191.81 839.667 202.63 834.03 233.942 818.051 250.519 811.933 252.829 811.081 255.197 810.578 257.564 810.2 269.683 808.266 281.848 806.987 293.963 805 302.718 803.564 309.827 802.685 318.621 799.8 321.037 799.007 323.254 797.155 325.666 796.333 338.449 791.979 329.604 797.862 343.278 791.133 346.774 789.413 355.118 783.491 358.543 780.733 360.546 779.12 362.345 776.958 364.414 775.533 368.233 772.902 372.526 771.766 376.155 768.6 381.21 764.191 385.642 758.379 390.245 753 409.488 730.512 398.952 743.549 411.38 723.533 413.25 720.522 415.57 718.112 417.251 714.867 422.2 705.313 426.049 695.532 430.167 685.4 430.558 681.933 430.631 678.354 431.341 675 431.883 672.441 437.348 651.789 439.56 647.267 443.14 639.95 445.974 630.891 451.302 626.467 457.564 621.267 463.445 614.905 470.089 610.867 476.743 606.822 483.243 602.178 490.05 598.733 504.825 591.255 506.79 591.148 518.23 588.333 519.795 587.178 522.792 587.443 522.927 584.867 523.681 570.393 520.806 567.869 515.881 560.6 508.271 521.28 511.117 540.474 514.707 458.333 515.075 449.92 520.498 431.858 524.101 425.4 527.097 420.029 531.146 416.156 534.668 411.533 539.365 397.089 544.016 382.612 548.758 368.2 550.721 362.236 557.763 341.144 560.5 335.267 565.025 325.551 569.302 321.249 574.59 312.733 580.22 303.666 580.656 301.902 585.158 291.933 585.94 287.889 586.312 283.619 587.506 279.8 590.079 271.57 593.119 267.343 598.073 262.467 599.53 261.033 601.205 260.156 602.77 259 604.336 261.889 606.03 264.636 607.467 267.667 608.776 270.427 609.764 273.491 610.989 276.333 615.84 287.587 620.643 298.079 628.602 305.8 642.693 319.469 666.472 334.444 683.788 337L695.53 338.733C705.706 338.156 715.908 338.215 726.058 337 730.42 336.478 734.623 334.222 738.974 333.533 745.601 332.485 752.281 332.378 758.935 331.8 769.867 329.495 773.749 328.333 787.115 328.333 820.385 328.333 853.651 329.489 886.919 330.067 889.659 330.645 894.111 328.007 895.139 331.8 896.518 336.889 892.636 342.13 891.616 347.4 890.286 354.272 890.182 361.753 888.094 368.2 887.265 370.758 879.163 385.551 876.352 392.467 869.918 408.295 871.955 403.382 866.958 423.667 865.771 444.706 864.744 451.049 866.958 473.933 867.206 476.491 868.457 478.608 869.307 480.867 870.415 483.812 871.327 486.998 872.829 489.533 892.009 521.891 863.435 466.998 881.049 501.667 881.44 503.4 882.111 505.047 882.223 506.867 883.679 530.521 880.657 555.4 885.745 577.933 887.573 586.026 895.76 586.5 901.009 590.067 920.431 603.264 939.355 618.581 959.718 628.2 993.576 644.194 979.72 635.791 1001.99 650.733 1005.9 656.511 1010.02 662.008 1013.73 668.067 1023.05 683.278 1024.2 686.916 1031.34 702.733 1033.19 711.825 1034.32 723.496 1039.56 730.467 1041.51 733.059 1044.26 733.933 1046.61 735.667 1049.73 740.284 1053.44 744.64 1054.83 751.267 1055.75 755.719 1055.61 760.511 1056 765.133 1054.83 774.378 1056.01 785.041 1052.48 792.867 1051.69 794.6 1051.21 796.733 1050.13 798.067 1048.78 799.721 1047.04 800.516 1045.43 801.533 1030.6 810.918 1014.75 817.263 1000.81 829.267 996.117 833.311 991.321 837.114 986.724 841.4 983.877 844.054 981.345 847.398 978.505 850.067 964.322 863.39 983.857 842.408 969.111 858.733 965.335 897.756 967.114 874.706 969.111 955.8 970.543 1013.91 970.286 932.809 970.286 973.133" fill="#FAFAFA" fill-rule="evenodd" fill-opacity="0.870588"/><path d="M851 505C853.348 500.384 855.907 495.985 858.045 491.152 861.785 482.698 865.551 474.216 868.613 465.188 869.395 462.88 870.033 460.452 870.961 458.264 871.998 455.818 873.398 453.741 874.483 451.34 876.099 447.767 879.135 438.898 881.528 435.762 883.638 432.998 886.419 431.526 888.573 428.838 891.531 425.149 893.757 420.271 896.793 416.721 905.135 406.968 914.001 398.232 922.624 389.026 925.351 386.115 927.718 382.215 930.844 380.371 934.734 378.077 939.74 374.929 943.759 373.448 949.196 371.444 954.846 370.703 960.198 368.255 966.237 365.492 971.848 360.971 977.81 357.869 988.63 352.24 1019.94 336.283 1036.52 330.174 1038.83 329.323 1041.2 328.82 1043.56 328.443 1055.68 326.511 1067.85 325.234 1079.96 323.25 1088.72 321.816 1095.83 320.938 1104.62 318.057 1107.04 317.266 1109.25 315.416 1111.67 314.595 1124.45 310.247 1115.6 316.122 1129.28 309.402 1132.77 307.685 1141.12 301.771 1144.54 299.017 1146.55 297.406 1148.35 295.247 1150.41 293.824 1154.23 291.196 1158.53 290.061 1162.16 286.9 1167.21 282.497 1171.64 276.693 1176.25 271.321 1195.49 248.864 1184.95 261.883 1197.38 241.895 1199.25 238.888 1201.57 236.481 1203.25 233.241 1208.2 223.7 1212.05 213.932 1216.17 203.814 1216.56 200.352 1216.63 196.778 1217.34 193.429 1217.88 190.873 1223.35 170.25 1225.56 165.733 1229.14 158.427 1231.97 149.381 1237.3 144.962 1243.56 139.769 1249.45 133.416 1256.09 129.383 1262.74 125.344 1269.24 120.707 1276.05 117.267 1290.82 109.799 1292.79 109.692 1304.23 106.881 1305.8 105.727 1308.79 105.992 1308.93 103.419 1309.68 88.9657 1306.81 86.4447 1301.88 79.1857 1294.27 39.92 1297.12 59.0875 1300.71-22.9404 1301.07-31.3418 1306.5-49.3799 1310.1-55.8285 1313.1-61.1918 1317.15-65.0603 1320.67-69.6762 1325.36-84.1008 1330.02-98.5576 1334.76-112.95 1336.72-118.906 1343.76-139.968 1346.5-145.838 1351.02-155.541 1355.3-159.836 1360.59-168.34 1366.22-177.395 1366.66-179.157 1371.16-189.112 1371.94-193.151 1372.31-197.415 1373.51-201.229 1376.08-209.448 1379.12-213.669 1384.07-218.538 1385.53-219.969 1387.2-220.846 1388.77-222 1390.34-219.115 1392.03-216.372 1393.47-213.345 1394.78-210.589 1395.76-207.529 1396.99-204.69 1401.84-193.452 1406.64-182.974 1414.6-175.264 1428.69-161.614 1452.47-146.66 1469.79-144.107L1481.53-142.376C1491.71-142.953 1501.91-142.894 1512.06-144.107 1516.42-144.628 1520.62-146.882 1524.97-147.569 1531.6-148.616 1538.28-148.723 1544.93-149.3 1555.87-151.602 1559.75-152.762 1573.11-152.762 1606.39-152.762 1639.65-151.608 1672.92-151.031 1675.66-150.454 1680.11-153.088 1681.14-149.3 1682.52-144.218 1678.64-138.985 1677.62-133.721 1676.29-126.859 1676.18-119.388 1674.09-112.95 1673.26-110.396 1665.16-95.623 1662.35-88.7167 1655.92-72.9099 1657.96-77.8163 1652.96-57.5595 1651.77-36.5489 1650.74-30.2145 1652.96-7.36185 1653.21-4.8075 1654.46-2.69376 1655.31-0.43811 1656.42 2.5029 1657.33 5.68474 1658.83 8.21671 1678.01 40.5298 1649.43-14.2882 1667.05 20.3334 1667.44 22.0643 1668.11 23.7091 1668.22 25.5262 1669.68 49.1483 1666.66 73.9929 1671.75 96.4953 1673.57 104.577 1681.76 105.05 1687.01 108.612 1706.43 121.791 1725.36 137.087 1745.72 146.693 1779.58 162.665 1765.72 154.273 1787.99 169.195 1791.9 174.965 1796.02 180.454 1799.73 186.505 1809.05 201.695 1810.2 205.328 1817.34 221.124 1819.19 230.203 1820.32 241.858 1825.56 248.819 1827.51 251.408 1830.26 252.281 1832.61 254.012 1835.73 258.623 1839.44 262.973 1840.83 269.59 1841.75 274.037 1841.61 278.822 1842 283.438 1840.83 292.67 1842.01 303.318 1838.48 311.133 1837.69 312.864 1837.21 314.994 1836.13 316.326 1834.78 317.978 1833.04 318.772 1831.43 319.788 1816.6 329.159 1800.75 335.496 1786.81 347.483 1782.12 351.522 1777.32 355.32 1772.72 359.6 1769.88 362.25 1767.35 365.59 1764.5 368.255 1750.32 381.559 1769.86 360.606 1755.11 376.91 1751.33 415.878 1753.11 392.861 1755.11 473.843 1756.54 531.876 1756.29 450.883 1756.29 491.152" fill="#FAFAFA" fill-rule="evenodd" fill-opacity="0.901961"/></g></svg>