<svg width="1280" height="720" xmlns="http://www.w3.org/2000/svg" xmlns:xlink="http://www.w3.org/1999/xlink" overflow="hidden"><g><rect x="0" y="0" width="1280" height="720" fill="#FAFAFA"/><path d="M171 226 185.068 224.82 186 207 186.932 224.82 201 226 186.932 227.18 186 245 185.068 227.18Z" fill="#5C93F6" fill-rule="evenodd"/><path d="M201 433 221.441 428.965 224.5 402 227.559 428.965 248 433 227.559 437.035 224.5 464 221.441 437.035Z" fill="#5C93F6" fill-rule="evenodd"/><path d="M409 323 426.539 319.677 429 296 431.461 319.677 449 323 431.461 326.323 429 350 426.539 326.323Z" fill="#5C93F6" fill-rule="evenodd"/><path d="M777 195.5 790.495 193.644 792 177 793.505 193.644 807 195.5 793.505 197.356 792 214 790.495 197.356Z" fill="#5C93F6" fill-rule="evenodd"/><path d="M807 590 827.989 586.688 830.5 559 833.011 586.688 854 590 833.011 593.312 830.5 621 827.989 593.312Z" fill="#5C93F6" fill-rule="evenodd"/><path d="M972 386 989.977 382.677 992.5 359 995.023 382.677 1013 386 995.023 389.323 992.5 413 989.977 389.323Z" fill="#5C93F6" fill-rule="evenodd"/><path d="M248 666 260.922 663.368 263 647 265.078 663.368 278 666 265.078 668.632 263 685 260.922 668.632Z" fill="#5C93F6" fill-rule="evenodd"/></g></svg>